

<svg version="1.1" id="Layer_2_00000061473233061972780030000000352876093285049005_"
	 xmlns="http://www.w3.org/2000/svg" xmlns:xlink="http://www.w3.org/1999/xlink" x="0px" y="0px" viewBox="0 0 824.6 70.2"
	 style="enable-background:new 0 0 824.6 70.2;" xml:space="preserve">
<style type="text/css">
</style>
<pattern  y="70.2" width="58.8" height="58.8" patternUnits="userSpaceOnUse" id="New_Pattern_Swatch_2" viewBox="0 -58.8 58.8 58.8" style="overflow:visible;">
	<g>
		<rect y="-58.8" class="st0" width="58.8" height="58.8"/>
		<g>
			<rect y="-58.8" class="st0" width="58.8" height="58.8"/>
			<rect y="-58.8" class="st1" width="58.8" height="58.8"/>
		</g>
	</g>
</pattern>
<pattern  y="70.2" width="58.8" height="58.8" patternUnits="userSpaceOnUse" id="New_Pattern_Swatch_5" viewBox="0 -58.8 58.8 58.8" style="overflow:visible;">
	<g>
		<rect y="-58.8" class="st0" width="58.8" height="58.8"/>
		<g>
			<rect y="-58.8" class="st0" width="58.8" height="58.8"/>
			<rect y="-58.8" class="st2" width="58.8" height="58.8"/>
		</g>
	</g>
</pattern>
<g id="Layer_1-2">
	<g>
		<pattern  id="SVGID_1_" xlink:href="#New_Pattern_Swatch_5" patternTransform="matrix(1.02 0 0 -1 -1521.2802 -15901.4502)">
		</pattern>
		
			<pattern  id="SVGID_00000034077557383393652350000000349048043675086015_" xlink:href="#New_Pattern_Swatch_2" patternTransform="matrix(1.02 0 0 -1 -1546.5901 -15900.9805)">
		</pattern>
		
			<path style="fill:url(#SVGID_1_);stroke:url(#SVGID_00000034077557383393652350000000349048043675086015_);stroke-miterlimit:10;" d="
			M232.9,54.7c0.3-4.7,0.6-9.3,0.9-13.9c0.2-3.1,0.4-6.2,0.6-9.3c0.2-3.4,0.4-6.8,0.7-10.1c0.1-1.3,0.2-2.7,0.5-4
			c0.4-2.3,1.8-3.1,3.6-3.4c1.8-0.3,3.5-0.2,5.3,0.1c1.6,0.2,2.9,1.4,3.1,3.1c0.2,1.8,0.4,3.6,0.5,5.4c0.4,6,0.7,12.1,1,18.1
			c0.3,4.8,0.5,9.6,0.8,14.5c0,0.3,0,0.8,0.3,0.9c0.2,0,0.2-0.4,0.2-0.6c0.4-5.7,0.7-11.4,1.1-17.1c0.3-4.5,0.6-9,0.9-13.6
			c0.2-2.9,0.4-5.9,0.6-8.8c0.1-1.4,0.6-1.7,2-1.8c1.5,0,2,0.5,2,2c-0.2,2.8-0.4,5.5-0.6,8.3c-0.4,5.1-0.8,10.2-1.2,15.3
			c-0.3,3.7-0.6,7.4-0.9,11c-0.1,1.6-0.2,3.2-0.4,4.8c-0.2,1.3-0.5,2.5-0.8,3.7c-0.2,0.7-0.8,1.2-1.5,1.5c-2,0.8-4.1,0.9-6.2,0.5
			c-0.5-0.1-0.9-0.2-1.4-0.3c-2.1-0.7-2.5-1.8-2.9-4.8c-0.1-0.6-0.1-0.8-0.1-1.2c-0.2-4.3-0.4-8.5-0.6-12.8
			c-0.3-6.2-0.6-12.5-0.9-18.7c0-0.8,0-2.5-0.1-2.4c-0.1,0-0.4,0.3-0.4,0.5c-0.4,4.9-0.7,9.7-1,14.6c-0.4,5.2-0.8,10.5-1.1,15.7
			c-0.1,1.4-0.2,2.8-0.3,4.1c-0.1,1.2-0.5,2.4-0.9,3.5c-0.3,0.8-1,1.3-1.8,1.5c-2.4,0.7-5,0.8-7.4,0.2c-1.9-0.4-3-1.7-3.2-3.7
			c-0.2-1.8-0.4-3.6-0.5-5.3c-0.5-6.6-0.9-13.2-1.4-19.8c-0.3-4.3-0.6-8.6-0.9-12.9c-0.1-1.2-0.2-2.4,0.4-3.5c0.4-0.8,1-1.3,1.8-1.5
			c1.5-0.3,5.4-0.1,5.6-0.1c1.4,0.3,1.9,0.8,2.2,2.1c0.2,1,0.4,2.1,0.5,3.2c0.4,6.1,0.7,12.1,1,18.2c0.2,3.7,0.4,7.4,0.6,11.1
			c0.1,2.1,0.2,4.3,0.3,6.4c0,0.3,0.1,0.5,0.1,0.8c0.1,0,0.2,0,0.3,0C232.8,55.8,232.9,55.1,232.9,54.7z"/>
		
			<pattern  id="SVGID_00000141422216909396921290000000836324272367727495_" xlink:href="#New_Pattern_Swatch_5" patternTransform="matrix(1.02 0 0 -1 -1521.2802 -15901.4502)">
		</pattern>
		
			<pattern  id="SVGID_00000002372482144805298910000000111972569946061213_" xlink:href="#New_Pattern_Swatch_2" patternTransform="matrix(1.02 0 0 -1 -1546.5901 -15900.9805)">
		</pattern>
		
			<path style="fill:url(#SVGID_00000141422216909396921290000000836324272367727495_);stroke:url(#SVGID_00000002372482144805298910000000111972569946061213_);stroke-miterlimit:10;" d="
			M120.2,55.2c0.4-5.6,0.7-11.1,1.1-16.7c0.3-4.4,0.6-8.8,0.9-13.2c0.2-2.2,0.2-4.4,0.4-6.7c0.1-1.1,0.4-2.3,1.1-3.3
			c0.5-0.8,1.3-1.2,2.1-1.3c1.6-0.3,3.3-0.8,4.9-0.3c0.6,0.1,1,0.2,1.5,0.4c1.4,0.5,2.2,1.1,2.5,2.3c0.3,1.1,0.5,2.3,0.5,3.5
			c0.4,7.7,0.9,15.3,1.3,23c0.2,4.1,0.4,8.1,0.6,12.2c0,0.2,0,0.7,0.3,0.6c0.3,0,0.2-0.4,0.3-0.7c0.1-1.5,0.2-3.1,0.3-4.7
			c0.3-4.9,0.6-9.7,0.9-14.6c0.3-4.5,0.6-9,0.9-13.6c0.1-2.2,0.3-4.4,0.4-6.5c0.1-1.2,0.5-1.7,1.7-1.8c0.2,0,0.5,0,0.8,0
			c1.1,0.1,1.5,0.6,1.5,1.7c0,0.8-0.1,1.6-0.2,2.4c-0.2,2.1-0.3,4.2-0.5,6.2c-0.4,5.1-0.8,10.1-1.2,15.2c-0.4,5-0.8,10-1.2,14.9
			c-0.1,1.2-0.2,2.3-0.5,3.5c-0.4,1.5-1.4,2.7-3,3.1c-2.2,0.5-4.4,0.5-6.6-0.2c-1.3-0.4-2.1-1.2-2.5-2.4c-0.3-1-0.5-2.1-0.6-3.2
			c-0.1-4.2-0.4-8.3-0.6-12.5c-0.2-5.1-0.5-10.1-0.8-15.2c-0.1-1.8-0.2-3.7-0.3-5.5c0-0.4-0.2-1.2-0.4-1.2c-0.1,0-0.2,0.5-0.2,0.7
			c-0.3,4-0.6,8-0.9,12.1c-0.3,4.1-0.6,8.3-0.9,12.4c-0.2,2.9-0.4,5.8-0.6,8.7c-0.1,1.3-0.2,2.7-0.8,3.9c-0.5,1-1.3,1.8-2.5,2.2
			c-2,0.6-4,0.4-5.9,0.4c-1.7,0-3.6-1.5-4-3.2c-0.2-0.6-0.2-1.3-0.3-2c-0.3-4.3-0.7-8.7-0.9-13.1c-0.3-4.1-0.6-8.2-0.8-12.3
			c-0.3-3.9-0.6-7.8-0.8-11.7c-0.1-0.8,0-1.7,0-2.5c0.1-1.5,1.1-2.4,2.4-2.6c1.9-0.4,3.7-0.3,5.6,0.2c1.2,0.3,1.8,1.1,2,2.2
			c0.3,1.7,0.4,3.5,0.5,5.2c0.3,6.2,0.7,12.3,1,18.5c0.3,4.9,0.5,9.9,0.8,14.8c0,0.3,0.1,0.6,0.1,0.9c0.1,0,0.2,0,0.2,0
			C120,55.8,120.2,55.4,120.2,55.2z"/>
		
			<pattern  id="SVGID_00000145051774149317394840000012912131303590344353_" xlink:href="#New_Pattern_Swatch_5" patternTransform="matrix(1.02 0 0 -1 -1521.2802 -15901.4502)">
		</pattern>
		
			<pattern  id="SVGID_00000045612431999341233380000005477461512260519062_" xlink:href="#New_Pattern_Swatch_2" patternTransform="matrix(1.02 0 0 -1 -1546.5901 -15900.9805)">
		</pattern>
		
			<path style="fill:url(#SVGID_00000145051774149317394840000012912131303590344353_);stroke:url(#SVGID_00000045612431999341233380000005477461512260519062_);stroke-miterlimit:10;" d="
			M104.6,37.3c0,5.2,0,10.4,0,15.6c0,1.2-0.1,2.4-0.4,3.6c-0.5,1.9-1.7,3.4-3.7,4.1c-1.4,0.5-2.8,0.7-4.3,0.7c-2.7,0-5.3,0-7.9,0
			c-1.4,0-2.7-0.2-3.9-0.8c-1.5-0.7-2.6-1.7-3.1-3.2c-0.4-1.1-0.7-2.2-0.7-3.4c0-11.2,0-22.5,0-33.7c0-3.1,2.5-5.7,5.6-6.2
			c3.9-0.6,7.7-0.2,11.6-0.2c0.7,0,1.5,0.2,2.2,0.4c2.8,0.8,4.2,2.7,4.6,5.8c0.1,0.8,0.1,1.6,0.1,2.4
			C104.6,27.4,104.6,32.4,104.6,37.3L104.6,37.3z M91,37.8L91,37.8c0,6.2,0,12.3,0,18.5c0,0.4-0.1,0.8,0,1.1
			c0.1,0.7,0.6,1.3,1.2,1.4c0.6,0.1,1.4-0.3,1.5-0.9c0.2-0.6,0.3-1.3,0.3-1.9c0-12.4,0-24.8,0-37.2c0-0.5-0.1-1-0.3-1.4
			c-0.3-0.9-0.5-1.1-1.3-1.1c-0.8,0-1.2,0.3-1.3,1.1c-0.1,0.6-0.2,1.3-0.2,2C91,25.5,91,31.6,91,37.8L91,37.8z"/>
		
			<pattern  id="SVGID_00000025436681819340905670000010420243060443843974_" xlink:href="#New_Pattern_Swatch_5" patternTransform="matrix(1.02 0 0 -1 -1521.2802 -15901.4502)">
		</pattern>
		
			<pattern  id="SVGID_00000137105396811526643210000009843366021283720841_" xlink:href="#New_Pattern_Swatch_2" patternTransform="matrix(1.02 0 0 -1 -1546.5901 -15900.9805)">
		</pattern>
		
			<path style="fill:url(#SVGID_00000025436681819340905670000010420243060443843974_);stroke:url(#SVGID_00000137105396811526643210000009843366021283720841_);stroke-miterlimit:10;" d="
			M193.2,22c0-1.2,0.1-2.4,0.4-3.6c0.5-2,1.8-3.4,3.7-4.1c1-0.4,2-0.6,3.1-0.6c2.9,0,5.7-0.1,8.6,0c1.4,0,2.8,0.3,4.2,0.6
			c2.1,0.6,3.8,2.9,3.9,5.1c0.1,2,0.2,4,0.2,6c0,9.2,0,18.4,0,27.6c0,2-0.5,3.8-1.4,5.5c-0.6,1.2-1.8,1.8-3.1,2.2
			c-1.7,0.5-3.4,0.6-5.1,0.6c-2.4,0-4.8,0-7.2,0c-1.5,0-2.9-0.4-4.2-1.1c-1.9-1.1-3-2.9-3-4.9C193.2,49.5,193.2,27.3,193.2,22z
			 M206.9,19.3c0-0.7-0.1-1.3-0.2-2c-0.2-0.8-0.6-1.1-1.3-1.1c-0.8,0-1.3,0.3-1.4,1.1c-0.1,0.6-0.1,1.2-0.1,1.9
			c0,12.2,0,24.3,0,36.5c0,0.6,0,1.3,0.1,1.9c0,0.5,0.4,1.2,1,1.2c1.5,0,1.6-0.5,1.8-0.8c0-0.1,0-0.2,0.1-0.2
			c0.1-0.8,0.2-1.6,0.2-2.3C206.9,49.4,206.9,25.3,206.9,19.3z"/>
		
			<pattern  id="SVGID_00000103952447416121214420000014037758085994384520_" xlink:href="#New_Pattern_Swatch_5" patternTransform="matrix(1.02 0 0 -1 -1521.2802 -15901.4502)">
		</pattern>
		
			<pattern  id="SVGID_00000175321229199257291700000011211892396940404371_" xlink:href="#New_Pattern_Swatch_2" patternTransform="matrix(1.02 0 0 -1 -1546.5901 -15900.9805)">
		</pattern>
		
			<path style="fill:url(#SVGID_00000103952447416121214420000014037758085994384520_);stroke:url(#SVGID_00000175321229199257291700000011211892396940404371_);stroke-miterlimit:10;" d="
			M35.6,38c0,0.3,0,0.5,0,0.7c0,6.1,0,12.2,0,18.3c0,0.8,0.2,1.4,0.9,1.8c0.1,0,0.2,0,0.2,0c1.5-0.3,1.7-1.4,1.7-2.6
			c0-3.4,0-6.7,0-10.1c0-2,1.1-3.4,3.2-3.7c1.6-0.2,3.2-0.1,4.8,0.3c0.9,0.2,1.5,0.8,1.7,1.7c0.2,0.8,0.3,1.6,0.3,2.5
			c0,2.3,0.1,4.5,0,6.8c0,1-0.2,2-0.4,3c-0.5,2-3.1,4.1-5.2,4.4c-3.3,0.5-6.5,0.2-9.8,0.2c-2.1,0-5.3-0.6-6.3-2
			c-0.9-1.3-1.7-2.6-1.7-4.3c0-8.8,0-17.7-0.1-26.6c0-2.9,0-5.7,0.1-8.6c0-2.5,2-4.9,4.1-5.6c0.9-0.3,1.9-0.5,2.9-0.6
			c2.8-0.1,5.6-0.1,8.3,0c1.3,0,2.7,0.2,4,0.6c1.4,0.4,2.5,1.3,3.2,2.8c0.8,1.7,1.1,3.4,1.1,5.3c0,2.6-0.1,5.3,0,7.9
			c0.1,1.8,0,3.7-0.5,5.3c-0.4,1.1-1.2,1.4-2,1.6c-1,0.3-2.1,0.6-3.2,0.6c-2.2,0.1-4.4,0-6.5,0C36.1,37.9,35.9,38,35.6,38L35.6,38z
			 M38.4,35.1c0-0.6,0.1-1,0.1-1.5c0-4.8,0-9.5,0-14.3c0-0.6,0-1.2-0.1-1.8c-0.1-0.9-0.5-1.2-1.3-1.2c-0.8,0-1.3,0.3-1.5,1.1
			c-0.1,0.4-0.1,0.9-0.1,1.4c0,5.1,0,10.2,0,15.3c0,0.3,0,0.7,0,1L38.4,35.1L38.4,35.1z"/>
		
			<pattern  id="SVGID_00000141445239231437010660000017330285597807235004_" xlink:href="#New_Pattern_Swatch_5" patternTransform="matrix(1.02 0 0 -1 -1521.2802 -15901.4502)">
		</pattern>
		
			<pattern  id="SVGID_00000170241626536561388170000005566036273591687610_" xlink:href="#New_Pattern_Swatch_2" patternTransform="matrix(1.02 0 0 -1 -1546.5901 -15900.9805)">
		</pattern>
		
			<path style="fill:url(#SVGID_00000141445239231437010660000017330285597807235004_);stroke:url(#SVGID_00000170241626536561388170000005566036273591687610_);stroke-miterlimit:10;" d="
			M269.5,38c0,0.4-0.1,0.6-0.1,0.8c0,6,0,12.1,0,18.1c0,0.8,0.6,1.9,1.2,1.8c1.8,0,1.7-0.9,1.7-2.5c0-3.4,0-6.8,0-10.2
			c0-1.8,1.1-3.2,2.9-3.6c1.7-0.3,3.5-0.2,5.2,0.3c0.8,0.2,1.4,0.8,1.6,1.7c0.2,0.8,0.3,1.6,0.4,2.5c0,2.3,0.1,4.6,0,6.9
			c0,1-0.1,2.1-0.5,3.1c-0.8,2.3-2.5,3.9-5.1,4.2c-1.7,0.2-3.5,0.2-5.2,0.3c-1.8,0-3.6-0.1-5.4,0c-2,0.1-4.3-0.7-5.7-2.3
			c-0.4-0.6-0.7-1.1-1.1-1.7c-0.4-0.6-0.5-1.2-0.5-2c0-11.2,0-22.5-0.1-33.7c0-0.8,0-1.7,0.1-2.5c0.1-0.6,0.5-1.2,0.7-1.8
			c0.6-1.5,1.9-2.4,3.4-3c0.9-0.3,1.9-0.6,3-0.6c2.6,0,5.3-0.1,8,0c1.4,0,2.9,0.2,4.2,0.6c2,0.6,3.3,2,3.8,3.9
			c0.3,1.2,0.5,2.5,0.5,3.8c0.1,3,0.1,6,0,9.1c0,1.2-0.2,2.4-0.4,3.6c-0.3,1.4-1.1,2.4-2.7,2.7c-0.9,0.2-1.8,0.4-2.7,0.5
			C274.3,38,272,37.9,269.5,38L269.5,38z M272.3,35.1c0-0.6,0.1-1.1,0.1-1.6c0-4.8,0-9.5,0-14.3c0-0.6,0-1.2-0.1-1.8
			c-0.1-0.9-0.5-1.2-1.3-1.2c-0.8,0-1.3,0.4-1.4,1.1c-0.1,0.4-0.1,0.8-0.1,1.2c0,5.1,0,10.3,0,15.4c0,0.3,0,0.6,0.1,1L272.3,35.1
			L272.3,35.1z"/>
		
			<pattern  id="SVGID_00000099642179955294605000000008525522550685533839_" xlink:href="#New_Pattern_Swatch_5" patternTransform="matrix(1.02 0 0 -1 -1521.3202 -15901.4404)">
		</pattern>
		
			<pattern  id="SVGID_00000144328823359209899180000000271541014510008486_" xlink:href="#New_Pattern_Swatch_2" patternTransform="matrix(1.02 0 0 -1 -1546.6301 -15900.9697)">
		</pattern>
		
			<path style="fill:url(#SVGID_00000099642179955294605000000008525522550685533839_);stroke:url(#SVGID_00000144328823359209899180000000271541014510008486_);stroke-miterlimit:10;" d="
			M16,32.6c0.1-0.6,0.3-1.2,0.4-1.8c0.3-1.8,1.3-7.9,1.5-9.2c0.2-1.2,0.3-2.5,0.6-3.8c0.2-1.4,0.5-2.7,0.7-4.1
			c0.1-0.7,0.2-1.3,0.3-2c0.2-1.4,0.4-2.7,0.6-4.1c0.1-0.6,0.2-1.1,0.4-1.7c0.4-1.2,1.1-1.6,2.4-1.5c1.2,0.2,1.6,0.4,1.5,1.6
			c-0.2,1.4-0.4,2.9-0.6,4.3c-0.3,1.7-0.6,3.4-0.9,5.1c-0.3,1.7-0.6,3.3-0.9,5c-0.3,1.7-0.6,3.5-0.9,5.2c-0.4,2.1-1.8,9.8-2.1,11.5
			c-0.2,1.2-0.4,2.4-0.5,3.5C18.2,41.8,18,42.9,18,44c0,3.9,0,7.7,0,11.6c0,1-0.2,1.9-0.5,2.9c-0.5,1.6-1.5,2.4-3,2.5
			c-1.6,0.1-3.2,0.1-4.7,0c-1.5-0.1-2.7-1.6-2.8-3.2c-0.1-0.8-0.1-1.7-0.1-2.5c0-3.5,0-7,0-10.5c0-1.4-0.3-2.7-0.5-4.1
			c-0.1-0.7-0.3-1.4-0.4-2.2c-0.3-1.6-1.3-7.2-1.5-8.5c-0.3-1.5-1.3-6.7-1.5-7.9c-0.3-1.7-0.6-3.4-0.9-5c-0.2-1.2-0.4-2.3-0.6-3.5
			c-0.2-1.1-0.4-2.2-0.6-3.4C0.6,9.3,0.4,8.2,0.6,7.1c0.2-1.8,1-2.2,2.9-2.7c2-0.5,4.1-0.3,6,0.3c0.8,0.2,1.4,0.7,1.7,1.5
			c0.3,0.8,0.7,1.6,0.8,2.4c0.5,3.1,0.9,6.1,1.3,9.2c0.4,2.7,0.8,5.5,1.3,8.2c0.4,2.2,0.8,4.4,1.1,6.7C15.8,32.6,15.9,32.6,16,32.6
			L16,32.6z"/>
		
			<pattern  id="SVGID_00000152965537720930792900000001226808011400277672_" xlink:href="#New_Pattern_Swatch_5" patternTransform="matrix(1.02 0 0 -1 -1521.2802 -15901.4502)">
		</pattern>
		
			<pattern  id="SVGID_00000088820914996025212420000002796682380651058086_" xlink:href="#New_Pattern_Swatch_2" patternTransform="matrix(1.02 0 0 -1 -1546.5901 -15900.9805)">
		</pattern>
		
			<path style="fill:url(#SVGID_00000152965537720930792900000001226808011400277672_);stroke:url(#SVGID_00000088820914996025212420000002796682380651058086_);stroke-miterlimit:10;" d="
			M168.7,7.7v22.8c0.3,0,0.6,0.1,1,0.1c1.4,0,2.8,0,4.2,0c0.3,0,0.6,0,0.9,0c1.4,0.1,2.1,1.2,1.5,2.4c-0.2,0.6-0.8,0.7-1.4,0.7
			c-1.6,0-3.2,0-4.9,0c-0.4,0-0.8,0-1.4,0.1c0,0.5,0,1,0,1.4c0,6.9,0,13.8,0,20.7c0,0.9-0.1,1.8-0.3,2.6c-0.3,1.4-1.2,2.2-2.6,2.4
			c-1.8,0.4-3.6,0.4-5.5,0c-1.7-0.4-3-2.1-2.9-3.9c0-0.6,0.1-1.2,0.1-1.8c0-14.7,0-29.3,0-43.9c0-1.1-0.1-2.3,0.2-3.4
			c0.6-2.2,1.9-3.3,4.2-3.4c2.6-0.1,5.2-0.2,7.8-0.2c1.8,0,3.6,0,5.4,0c1.6,0,2.2,1,1.7,2.5c-0.2,0.6-0.7,0.8-1.3,0.8
			c-1.8,0-3.6,0-5.4,0C169.7,7.7,169.3,7.7,168.7,7.7L168.7,7.7z"/>
		
			<pattern  id="SVGID_00000078037829567390208460000012748258078114739629_" xlink:href="#New_Pattern_Swatch_5" patternTransform="matrix(1.02 0 0 -1 -1521.2802 -15901.4502)">
		</pattern>
		
			<pattern  id="SVGID_00000135692822690858913570000017642755142382754491_" xlink:href="#New_Pattern_Swatch_2" patternTransform="matrix(1.02 0 0 -1 -1546.5901 -15900.9805)">
		</pattern>
		
			<path style="fill:url(#SVGID_00000078037829567390208460000012748258078114739629_);stroke:url(#SVGID_00000135692822690858913570000017642755142382754491_);stroke-miterlimit:10;" d="
			M66.4,7.5c0-1.8,0.7-3,2.3-3.4c1.4-0.4,2.9-0.5,4.4-0.3c0.1,0,0.3,0.1,0.4,0.1c2.6,0.5,3.2,1.3,3.4,3.9c0,0.5,0,1.1,0,1.6
			c0,15.4,0,30.9,0,46.3c0,1.2-0.2,2.4-0.5,3.5c-0.2,0.8-0.7,1.3-1.5,1.6c-2.2,0.7-4.4,0.8-6.5,0c-1.1-0.4-1.7-1.2-1.8-2.4
			c-0.1-1.4-0.2-2.7-0.2-4.1c0-7.4,0-22.3,0-22.3C66.4,32,66.4,15.7,66.4,7.5z"/>
		
			<pattern  id="SVGID_00000028289367081891846830000002499839806332990389_" xlink:href="#New_Pattern_Swatch_5" patternTransform="matrix(1.02 0 0 -1 -1521.2802 -15901.4502)">
		</pattern>
		
			<pattern  id="SVGID_00000034069993737810795980000005651553749743625148_" xlink:href="#New_Pattern_Swatch_2" patternTransform="matrix(1.02 0 0 -1 -1546.5901 -15900.9805)">
		</pattern>
		
			<path style="fill:url(#SVGID_00000028289367081891846830000002499839806332990389_);stroke:url(#SVGID_00000034069993737810795980000005651553749743625148_);stroke-miterlimit:10;" d="
			M62.6,55.6c0,1-0.2,2-0.3,3c-0.1,1.4-1.2,2-2.3,2.4c-1.8,0.6-3.8,0.5-5.6,0c-1.2-0.3-2-1.2-2.2-2.6c-0.2-1-0.2-2-0.2-3
			c0-15.4,0-30.7,0-46c0-0.9,0.1-1.8,0.2-2.8c0.1-1.3,1-2.4,2.3-2.7c1.9-0.5,3.8-0.4,5.6,0c1.1,0.3,1.9,1,2.1,2.1
			c0.2,1.1,0.3,2.1,0.3,3.2C62.6,17,62.6,47.9,62.6,55.6z"/>
		
			<pattern  id="SVGID_00000103949808576105407560000011161243270349267355_" xlink:href="#New_Pattern_Swatch_5" patternTransform="matrix(1.02 0 0 -1 -1521.2802 -15901.4502)">
		</pattern>
		
			<pattern  id="SVGID_00000073701844885177395820000010941300224469981862_" xlink:href="#New_Pattern_Swatch_2" patternTransform="matrix(1.02 0 0 -1 -1546.5901 -15900.9805)">
		</pattern>
		
			<path style="fill:url(#SVGID_00000103949808576105407560000011161243270349267355_);stroke:url(#SVGID_00000073701844885177395820000010941300224469981862_);stroke-miterlimit:10;" d="
			M179.1,9.7c0-0.9,0-1.8,0.1-2.8c0.1-1.8,1.4-2.9,2.9-3.1c1.7-0.3,3.3-0.2,4.9,0.1c1.1,0.2,2,0.8,2.2,2c0.2,1.1,0.4,2.1,0.4,3.2
			c0,15.5,0,31,0,46.6c0,1-0.1,2.2-0.2,3.2c-0.2,1.5-1.6,1.8-2.7,2.1c-1.7,0.5-3.5,0.3-5.2,0c-1-0.2-2.2-1.6-2.3-2.7
			c-0.1-1-0.1-2-0.1-3C179.1,47.7,179.1,17.3,179.1,9.7z"/>
		
			<pattern  id="SVGID_00000179617821199047591510000007005505234757999271_" xlink:href="#New_Pattern_Swatch_5" patternTransform="matrix(1.02 0 0 -1 -1521.2802 -15901.4502)">
		</pattern>
		
			<pattern  id="SVGID_00000082355862999331836150000004406989166083986582_" xlink:href="#New_Pattern_Swatch_2" patternTransform="matrix(1.02 0 0 -1 -1546.5901 -15900.9805)">
		</pattern>
		
			<path style="fill:url(#SVGID_00000179617821199047591510000007005505234757999271_);stroke:url(#SVGID_00000082355862999331836150000004406989166083986582_);stroke-miterlimit:10;" d="
			M286,37.8c0-5.7,0-11.4,0-17.1c0-1.2,0.1-2.4,0.2-3.6c0.1-1.4,1-2.4,2.3-2.8c0.7-0.2,1.4-0.2,2-0.2c3,0,6,0,9,0c0.2,0,0.3,0,0.5,0
			c1.4,0.1,2,1.2,1.4,2.4c-0.2,0.5-0.7,0.6-1.2,0.6c-0.6,0-1.3,0-1.9,0c-1.1,0.1-1.5,0.5-1.7,1.6c-0.1,0.5-0.1,1.1-0.1,1.6
			c0,11.6,0,23.2,0,34.8c0,0.7,0,1.4,0,2.1c-0.2,2.6-1.6,3.9-4.2,4c-1.2,0-2.5,0-3.7-0.2c-1.3-0.2-2-1.2-2.4-2.3
			c-0.2-0.7-0.2-1.5-0.2-2.2C286,50.3,286,37.8,286,37.8z"/>
	</g>
	<g>
		
			<pattern  id="SVGID_00000138542901907914916610000003201991919145038767_" xlink:href="#New_Pattern_Swatch_5" patternTransform="matrix(1.02 0 0 -1 -1521.2802 -15901.4502)">
		</pattern>
		
			<pattern  id="SVGID_00000008125385858361003940000011788434206263432586_" xlink:href="#New_Pattern_Swatch_2" patternTransform="matrix(1.02 0 0 -1 -1546.5901 -15900.9805)">
		</pattern>
		
			<path style="fill:url(#SVGID_00000138542901907914916610000003201991919145038767_);stroke:url(#SVGID_00000008125385858361003940000011788434206263432586_);stroke-miterlimit:10;" d="
			M510,30.8h3.6c0-0.5,0-0.9,0-1.4c0-6.5,0-13.1,0-19.6c0-1-0.1-2,0.2-2.9c0.4-1,0.9-1.7,2-2c2.2-0.6,4.4-0.6,6.6,0
			c1.1,0.3,1.8,1,1.9,2.1c0.2,1.2,0.4,2.5,0.4,3.7c0,14.9,0,29.7,0,44.6c0,1.2-0.2,2.5-0.4,3.7c-0.2,1.1-0.9,1.8-1.9,2.1
			c-1.7,0.5-3.4,0.5-5.1,0.3c-0.5-0.1-1.1-0.1-1.6-0.3c-1.5-0.7-2.2-1.9-2.2-3.5c0-7.3,0-14.7,0-22c0-0.5,0-0.9,0-1.4h-3.6
			c0,0.4,0,0.9,0,1.3c0,6.6,0,13.3,0,19.9c0,1-0.1,2.1-0.2,3.1c-0.2,1.5-1.1,2.4-2.6,2.8c-1.9,0.4-3.7,0.4-5.6,0
			c-1.7-0.4-2.7-1.6-2.8-3.4c0-15.7,0-31.4,0-47.1c0-1.1-0.1-2.2,0.1-3.3c0.2-1.1,0.7-2,1.9-2.4c2.2-0.7,4.4-0.8,6.7-0.2
			c1.5,0.4,2.2,1.4,2.4,2.8c0.2,1.3,0.2,2.7,0.2,4C510.1,17.5,510,30.2,510,30.8L510,30.8z"/>
		
			<pattern  id="SVGID_00000124845903131705556220000004796735474611304116_" xlink:href="#New_Pattern_Swatch_5" patternTransform="matrix(1.02 0 0 -1 -1521.2802 -15901.4502)">
		</pattern>
		
			<pattern  id="SVGID_00000098904307246897296870000008672263087644052613_" xlink:href="#New_Pattern_Swatch_2" patternTransform="matrix(1.02 0 0 -1 -1546.5901 -15900.9805)">
		</pattern>
		
			<path style="fill:url(#SVGID_00000124845903131705556220000004796735474611304116_);stroke:url(#SVGID_00000098904307246897296870000008672263087644052613_);stroke-miterlimit:10;" d="
			M332.6,30.8c0-0.5,0-1,0-1.4c0-7,0-14,0-21c0-1.9,1-3.2,2.9-3.6c2.1-0.5,4.2-0.4,6.3,0.3c0.9,0.3,1.4,1,1.6,1.9
			c0.2,1.2,0.4,2.4,0.4,3.6c0,5.1,0,10.2,0,15.2c0,9.9,0,19.8,0,29.7c0,1.2-0.2,2.5-0.4,3.7c-0.2,0.9-0.8,1.5-1.7,2
			c-1.7,0.8-3.5,0.4-5.2,0.4c-0.5,0-1,0-1.5-0.2c-1.5-0.6-2.3-1.9-2.3-3.4c0-7.3,0-14.7-0.1-22c0-0.5,0-0.9,0-1.5
			c-1.2-0.1-2.4,0-3.7,0c0,0.5,0,1,0,1.5c0,6.6,0,13.3,0,19.9c0,1.2-0.2,2.3-0.4,3.5c-0.1,1.1-0.9,1.8-1.9,2.1
			c-1.7,0.6-3.4,0.5-5.1,0.3c-0.5,0-1-0.1-1.5-0.3c-1.5-0.6-2.3-1.9-2.3-3.5c0-13.2,0-26.4,0-39.7c0-3.3,0-6.6,0-9.8
			c0-1.7,1-3.1,2.7-3.5c2.2-0.6,4.4-0.4,6.5,0.3c0.8,0.3,1.4,0.9,1.5,1.7c0.2,1.3,0.4,2.6,0.5,3.8c0,6.3,0,12.5,0,18.8
			c0,0.5,0,0.9,0,1.5L332.6,30.8L332.6,30.8z"/>
		
			<pattern  id="SVGID_00000009575069927134526030000017587405742442164368_" xlink:href="#New_Pattern_Swatch_5" patternTransform="matrix(1.02 0 0 -1 -1521.2802 -15901.4502)">
		</pattern>
		
			<pattern  id="SVGID_00000068657208991348589930000015211774123896546998_" xlink:href="#New_Pattern_Swatch_2" patternTransform="matrix(1.02 0 0 -1 -1546.5901 -15900.9805)">
		</pattern>
		
			<path style="fill:url(#SVGID_00000009575069927134526030000017587405742442164368_);stroke:url(#SVGID_00000068657208991348589930000015211774123896546998_);stroke-miterlimit:10;" d="
			M694,60.4c0.9-0.2,1.3-0.6,1.4-1.3c0.2-0.6,0.2-1.2,0.2-1.9c0-5,0-9.9,0-14.8c0-0.7,0-1.4,0.4-2.1c0.7-1.3,1.8-1.8,3.2-1.9
			c1.1-0.1,2.3-0.1,3.4,0c2.5,0.3,2.9,1,3.5,3.4c0.1,0.6,0.1,1.2,0.1,1.9c0,3.7,0,7.3,0,11c0,1.4-0.1,2.8-0.6,4.1
			c-0.9,2.4-2.6,3.7-5.1,4.1c-1.5,0.2-3,0.3-4.6,0.3c-2.5,0-5,0-7.6,0c-2.5,0-4.7-1-6.4-2.8c-0.2-0.2-0.3-0.4-0.4-0.6
			c-0.7-1.5-1-3.1-1-4.8c0-8.2,0-16.4,0-24.7c0-5.9,0-11.8,0-17.7c0-0.6,0.3-1.8,0.5-2.4c0.9-2.5,2.8-3.2,5.4-3.6
			c4-0.6,8.1-0.3,12.1-0.2c1.2,0,2.4,0.4,3.5,0.8c1.8,0.7,2.9,2,3.3,3.9c0.3,1.2,0.4,2.5,0.5,3.8c0.1,2.8,0,5.5,0,8.3
			c0,1.4-0.2,3.1-0.7,4.1c-0.5,0.8-1.1,1-1.8,1.2c-1.4,0.4-2.8,0.3-4.2,0.3c-0.7,0-1.3-0.1-2-0.4c-1.3-0.6-1.8-1.6-1.9-2.9
			c-0.1-1.7-0.1-3.4-0.1-5c0-2.8,0-5.6,0-8.4c0-0.7-0.1-1.4-0.4-2.1c-0.3-0.8-1-1-2-0.9c-0.6,0.1-1.1,0.6-1.1,1.4
			c0,0.7-0.1,1.3-0.1,2c0,14.8,0,29.6,0,44.4c0,1-0.1,2,0.3,2.8C692.5,60.1,693.1,60.6,694,60.4z"/>
		
			<pattern  id="SVGID_00000017495369231288450800000002818407383977227655_" xlink:href="#New_Pattern_Swatch_5" patternTransform="matrix(1.02 0 0 -1 -1521.2802 -15901.4502)">
		</pattern>
		
			<pattern  id="SVGID_00000093142963448595867210000007599866742903941040_" xlink:href="#New_Pattern_Swatch_2" patternTransform="matrix(1.02 0 0 -1 -1546.5901 -15900.9805)">
		</pattern>
		
			<path style="fill:url(#SVGID_00000017495369231288450800000002818407383977227655_);stroke:url(#SVGID_00000093142963448595867210000007599866742903941040_);stroke-miterlimit:10;" d="
			M648.8,46.7c1.6,0.6,3.2,1.2,4.8,1.8c1.4,0.5,2.8,0.9,4.2,1.3c0.7,0.2,1.4,0.6,2.1,0.9c1.5,0.7,2.2,2,2.2,3.5
			c0.1,3.2,0.2,6.4,0,9.6c-0.2,3-1.7,4.9-4.9,5.5c-0.8,0.2-1.7,0.3-2.5,0.3c-3.2,0-6.3,0.1-9.5,0c-1.3-0.1-2.6-0.3-3.9-1
			c-1.7-0.9-2.4-2.3-2.5-4.1c-0.1-1.5-0.1-2.9,0-4.4c0.1-1.7,1.1-2.9,2.8-3.1c1.4-0.2,2.9-0.2,4.3,0c2.2,0.2,2.6,1,2.8,3.2
			c0.1,1.8,0,3.5,0.1,5.3c0,1.1,0.6,1.6,1.6,1.7c1,0,1.5-0.4,1.7-1.4c0.1-1,0.1-1.9,0.1-2.9c0-1.5,0-2.9,0-4.4
			c0-1.1-0.6-1.8-1.6-2.2c-0.8-0.3-1.6-0.6-2.4-0.9c-2.1-0.8-4.2-1.5-6.2-2.3c-0.5-0.2-1-0.5-1.5-0.7c-0.9-0.6-1.5-1.3-1.5-2.5
			c0-1.2,0.2-2.3,1-3.2c0.2-0.2,0.4-0.5,0.7-0.6c1.4-0.9,2.9-1.8,4.3-2.6c-1-0.4-2-0.6-2.9-1.1c-2.1-1.1-3.3-4.5-3.3-7.4
			c0-5,0-10.1,0.1-15.1c0-0.5,0.2-1,0.3-1.5c0-0.1,0.1-0.2,0.2-0.3c1-2.7,3.3-3.7,5.9-3.9c3.2-0.2,6.5-0.2,9.7-0.1
			c1.3,0.1,2.7,0.2,3.9,0.9c1.6,0.9,2.7,2.2,3,4c0.2,1.1,0.3,2.2,0.4,3.3c0,4.1,0,8.2,0,12.3c0,1.7-0.2,3.3-0.7,4.9
			c-0.6,1.7-1.9,2.8-3.7,3.4c-1.2,0.4-2.5,0.6-3.9,0.6c-0.5,0-1.1,0-1.7,0c-2.1-0.2-3.7,0.9-5.2,2c-0.1,0-0.3,0.1-0.2,0.4
			C647.2,46.3,648.2,46.4,648.8,46.7z M652.1,28.2c0-2.9,0-5.9,0-8.8c0-0.6,0-1.2-0.2-1.7c-0.2-0.8-0.5-1.1-1.3-1.2
			c-0.8,0-1.2,0.3-1.5,1.1c-0.2,0.6-0.1,1.2-0.1,1.9c0,1.9,0,3.7,0,5.5c0,4.8,0,9.7,0,14.5c0,0.7,0.6,1.4,1.2,1.4
			c0.9,0.1,1.6-0.5,1.7-1.3c0.1-1.1,0.2-2.2,0.2-3.4C652.1,33.6,652.1,30.9,652.1,28.2L652.1,28.2z"/>
		
			<pattern  id="SVGID_00000105387093403299603530000016267890132460334766_" xlink:href="#New_Pattern_Swatch_5" patternTransform="matrix(1.02 0 0 -1 -1521.2802 -15901.4502)">
		</pattern>
		
			<pattern  id="SVGID_00000044179930351959490120000001761699128970984322_" xlink:href="#New_Pattern_Swatch_2" patternTransform="matrix(1.02 0 0 -1 -1546.5901 -15900.9805)">
		</pattern>
		
			<path style="fill:url(#SVGID_00000105387093403299603530000016267890132460334766_);stroke:url(#SVGID_00000044179930351959490120000001761699128970984322_);stroke-miterlimit:10;" d="
			M621.7,17.6c0.2-0.3,0.4-0.6,0.7-0.9c1.8-2.2,4.2-2.9,7-2.8c0.8,0,1.5,0.1,2.2,0.3c1.5,0.4,2.7,1.3,3.1,2.9
			c0.2,0.9,0.5,1.9,0.5,2.8c0,12.2,0,24.5,0,36.8c0,0.7-0.1,1.5-0.3,2.2c-0.3,1.3-1.2,2-2.4,2.3c-1.8,0.4-3.7,0.4-5.4-0.1
			c-1.3-0.4-2.3-1.6-2.3-3c0-1,0-1.9,0-2.9c0-10.8,0-21.6,0-32.4c0-1-0.1-1.9-0.2-2.9c-0.1-0.6-0.6-0.9-1.2-0.7
			c-0.8,0.2-1.5,1.3-1.6,2.1c0,0.9,0,1.9,0,2.8c0,10.6,0,21.2,0,31.9c0,1.1-0.2,2.1-0.5,3.2c-0.2,1-0.8,1.5-1.7,1.8
			c-2.1,0.7-4.3,0.7-6.4-0.1c-1.4-0.5-1.8-1.7-2-3.1c0-0.2,0-0.5,0-0.8c0-13.1,0-26.3,0-39.4c0-1.3,0.5-2.1,1.3-2.9
			c0.2-0.2,0.6-0.5,0.9-0.6c2-0.4,4-0.5,5.9,0c1.2,0.3,1.9,1.2,2.1,2.4c0,0.2,0,0.5,0,0.7C621.5,17.5,621.6,17.6,621.7,17.6
			L621.7,17.6z"/>
		
			<pattern  id="SVGID_00000005949858211230769470000016089234620927035025_" xlink:href="#New_Pattern_Swatch_5" patternTransform="matrix(1.02 0 0 -1 -1521.2802 -15901.4502)">
		</pattern>
		
			<pattern  id="SVGID_00000073716216418372218530000016755632941030478485_" xlink:href="#New_Pattern_Swatch_2" patternTransform="matrix(1.02 0 0 -1 -1546.5901 -15900.9805)">
		</pattern>
		
			<path style="fill:url(#SVGID_00000005949858211230769470000016089234620927035025_);stroke:url(#SVGID_00000073716216418372218530000016755632941030478485_);stroke-miterlimit:10;" d="
			M747.3,19.1c0.5-0.5,0.9-0.8,1.2-1.1c2.5-2.4,5.6-2.9,8.9-2.1c1.8,0.5,3,1.6,3.2,3.5c0.1,1,0.3,2,0.3,3c0,11.7,0,23.4,0,35.1
			c0,1-0.1,2.1-0.3,3.1c-0.3,1.3-1.1,1.9-2.5,2.2c-1.7,0.3-3.4,0.4-5,0c-1.8-0.5-2.6-1.8-2.7-3.8c0-0.7,0-1.4,0-2.1
			c0-11.1,0-22.2,0-33.3c0-0.5,0-1.1-0.1-1.6c-0.1-1-0.9-1.3-1.8-0.8c-0.6,0.4-1,0.9-1.1,1.6c0,0.5,0,0.9,0,1.4c0,11,0,22,0,33
			c0,1.2-0.2,2.4-0.4,3.6c-0.1,0.8-0.6,1.4-1.3,1.8c-2.1,0.9-4.2,0.8-6.4,0.3c-1.5-0.3-2.1-1.5-2.3-2.8c-0.1-0.7-0.1-1.4-0.1-2.1
			c0-12.2,0-24.5,0-36.8c0-0.9,0.1-1.8,0.1-2.8c0-0.9,1.2-2.1,2-2.3c1.6-0.4,3.2-0.5,4.8-0.3C746.1,16.1,746.9,16.7,747.3,19.1
			L747.3,19.1z"/>
		
			<pattern  id="SVGID_00000140010967438348034360000011769138819296632463_" xlink:href="#New_Pattern_Swatch_5" patternTransform="matrix(1.02 0 0 -1 -1521.2802 -15901.4502)">
		</pattern>
		
			<pattern  id="SVGID_00000054956949003066009310000017556236344604388244_" xlink:href="#New_Pattern_Swatch_2" patternTransform="matrix(1.02 0 0 -1 -1546.5901 -15900.9805)">
		</pattern>
		
			<path style="fill:url(#SVGID_00000140010967438348034360000011769138819296632463_);stroke:url(#SVGID_00000054956949003066009310000017556236344604388244_);stroke-miterlimit:10;" d="
			M347.7,22c0-1.6,0.2-3.2,0.9-4.6c0.7-1.4,1.8-2.3,3.2-2.8c1.1-0.4,2.1-0.6,3.3-0.6c2.9,0,5.7-0.1,8.6,0c1.2,0,2.5,0.2,3.7,0.6
			c1.8,0.5,3,1.7,3.6,3.5c0.5,1.5,0.7,2.9,0.7,4.4c0,10.3,0,20.6,0,30.8c0,1.6-0.3,3.1-0.8,4.6c-0.5,1.3-1.5,2.3-2.9,2.8
			c-1.1,0.4-2.3,0.8-3.5,0.8c-3.2,0.1-6.5,0.1-9.7,0c-1.5,0-3-0.5-4.4-1.3c-0.6-0.4-1.1-0.9-1.5-1.5c-0.7-1.2-1.3-2.4-1.3-3.8
			C347.7,49.3,347.7,27.4,347.7,22z M358.2,56c0,0.6,0,1.3,0.1,1.9c0.1,0.6,0.8,1.1,1.5,1.1c0.7,0,1.2-0.4,1.3-1.1
			c0.1-1,0.2-2,0.2-3c0-10.7,0-21.4,0-32.1c0-1.7-0.1-3.3-0.2-5c0-0.8-0.7-1.5-1.4-1.4c-0.8,0-1.4,0.6-1.4,1.4c0,0.6,0,1.2,0,1.8
			C358.2,25.7,358.2,49.9,358.2,56z"/>
		
			<pattern  id="SVGID_00000130640681857024486530000001568918919204801936_" xlink:href="#New_Pattern_Swatch_5" patternTransform="matrix(1.02 0 0 -1 -1521.2802 -15901.4502)">
		</pattern>
		
			<pattern  id="SVGID_00000061432490654707709850000003393447792057690547_" xlink:href="#New_Pattern_Swatch_2" patternTransform="matrix(1.02 0 0 -1 -1546.5901 -15900.9805)">
		</pattern>
		
			<path style="fill:url(#SVGID_00000130640681857024486530000001568918919204801936_);stroke:url(#SVGID_00000061432490654707709850000003393447792057690547_);stroke-miterlimit:10;" d="
			M568.3,33.3l0-4.2c0-3.1,0-6.1,0-9.2c0-0.3,0-0.7,0-1c0-1.9-0.4-2.2-2.5-2.1c-0.2,0-0.3,1.2-0.3,1.9c0,2.1,0,4.1,0,6.2
			c0,1.2-0.1,2.5-0.2,3.7c-0.1,1-0.5,1.9-1.6,2.3c-2,0.8-4.2,0.8-6.2,0.1c-1.2-0.4-1.9-1.4-1.9-2.7c0-3-0.5-6.7,0.6-10.4
			c0.6-1.7,2-2.8,3.7-3.4c0.9-0.3,1.9-0.5,2.8-0.5c2.7-0.1,5.4-0.1,8.1-0.1c1,0,2.1,0.1,3.1,0.4c2.3,0.6,3.9,1.8,4.5,4.2
			c0.4,1.4,0.5,2.9,0.5,4.3c0,11,0,22,0,33c0,0.6,0,1.2,0,1.8c0,2.2-1.3,3.7-3.6,3.9c-1.5,0.1-3.1,0-4.6-0.2c-1.1-0.1-2-1.4-2.1-2.5
			c0-0.2,0-0.5,0-0.9c-0.4,0.3-0.6,0.6-0.8,0.8c-2.2,2.4-5,3.2-8.2,2.8c-2.3-0.3-3.9-2.2-4-4.2c-0.1-1-0.2-2.1-0.2-3.1
			c0-4,0-8,0.1-12c0-2,1.2-3.9,2.4-4.7c0.9-0.6,1.9-1.1,2.9-1.5c2.2-0.8,4.4-1.5,6.6-2.3C567.6,33.5,567.9,33.4,568.3,33.3
			L568.3,33.3z M568.3,36.2c-0.5,0.2-0.9,0.3-1.3,0.4c-1,0.3-1.6,0.9-1.6,2c0,0.6-0.1,1.3-0.1,1.9c0,3.4,0,6.7,0,10.1
			c0,1.3,0,2.5,0,3.8c0,0.7,0.1,1.9,0.8,1.9c1.9-0.1,2.2-1.1,2.2-3c0-2.8,0-5.6,0-8.4V36.2L568.3,36.2z"/>
		
			<pattern  id="SVGID_00000062897555844864998770000006967585698677220515_" xlink:href="#New_Pattern_Swatch_5" patternTransform="matrix(1.02 0 0 -1 -1521.2802 -15901.4502)">
		</pattern>
		
			<pattern  id="SVGID_00000069394509613020335230000002562515105812142252_" xlink:href="#New_Pattern_Swatch_2" patternTransform="matrix(1.02 0 0 -1 -1546.5901 -15900.9805)">
		</pattern>
		
			<path style="fill:url(#SVGID_00000062897555844864998770000006967585698677220515_);stroke:url(#SVGID_00000069394509613020335230000002562515105812142252_);stroke-miterlimit:10;" d="
			M792,41.3c0,5.5,0,11,0,16.5c0,0.6,0,1.3,0.2,1.9c0.1,0.7,0.6,1,1.3,1c0.7,0,1.1-0.2,1.3-0.9c0.1-0.6,0.2-1.2,0.2-1.7
			c0-3.4,0-6.8,0-10.2c0-2,0.9-2.9,2.8-3.3c1.5-0.3,2.9-0.2,4.4,0c1.3,0.2,2.1,1,2.4,2.2c0.2,0.7,0.3,1.5,0.3,2.2
			c0,2.3,0.1,4.5,0,6.8c0,1.3-0.2,2.6-0.7,3.8c-0.8,1.9-2.3,2.9-4.3,3.4c-1.7,0.4-3.3,0.5-5.1,0.5c-2.1,0-4.3,0.1-6.4,0
			c-1.7-0.1-3.3-0.7-4.6-1.8c-1.3-1.1-2-2.5-2.2-4.2c-0.1-1.2-0.2-2.3-0.2-3.5c0-9.9,0-19.7,0-29.6c0-1.5,0-2.9,0.6-4.3
			c1-2.5,2.8-3.7,5.4-4.1c1.1-0.2,2.3-0.2,3.4-0.2c2,0,4.1,0,6.2,0c1.5,0,3,0.4,4.4,0.9c2,0.8,2.9,2.4,3.3,4.3c0.2,1,0.3,2,0.3,3
			c0,3.2,0,6.4,0,9.6c0,1.2-0.2,2.4-0.5,3.5c-0.3,1.5-1.3,2.3-2.6,2.6c-1.3,0.3-2.7,0.4-4.1,0.5c-1.9,0.1-3.8,0-5.8,0
			C792,39.9,792,40.9,792,41.3z M794.9,37c0-0.4,0.1-11.4,0.1-16.8c0-0.4-0.1-0.9-0.3-1.3c-0.1-0.2-0.4-0.5-0.7-0.6
			c-1.3-0.2-1.7,0.1-1.9,1.4c-0.1,0.4-0.1,0.8-0.1,1.1c0,5.1,0.1,15.9,0.1,16.2H794.9z"/>
		
			<pattern  id="SVGID_00000049939223977446056790000011448639278926270088_" xlink:href="#New_Pattern_Swatch_5" patternTransform="matrix(1.02 0 0 -1 -1521.2802 -15901.4502)">
		</pattern>
		
			<pattern  id="SVGID_00000137100906855607404290000009596070144841565314_" xlink:href="#New_Pattern_Swatch_2" patternTransform="matrix(1.02 0 0 -1 -1546.5901 -15900.9805)">
		</pattern>
		
			<path style="fill:url(#SVGID_00000049939223977446056790000011448639278926270088_);stroke:url(#SVGID_00000137100906855607404290000009596070144841565314_);stroke-miterlimit:10;" d="
			M720.3,39.9c0,0.5,0,0.9,0,1.3c0,5.6,0,11.2,0,16.9c0,0.5,0,1.1,0.1,1.6c0.1,0.7,0.6,1,1.3,1c0.7,0,1.2-0.3,1.3-1
			c0.1-0.6,0.1-1.2,0.1-1.8c0-2.8,0-5.7,0-8.6c0-0.9,0.1-1.8,0.2-2.6c0.2-1.1,0.9-1.9,2-2.2c1.2-0.3,5-0.1,5.6,0
			c1,0.1,1.5,1,1.8,1.9c0.2,0.7,0.3,1.5,0.3,2.2c0,2.4,0.1,4.8,0,7.2c0,1-0.2,2.1-0.5,3.1c-0.8,2.6-2.9,4-5.5,4.2
			c-3.5,0.3-7.1,0.4-10.6,0.2c-2.5-0.1-4.8-1.2-6.1-3.7c-0.4-0.8-0.7-1.6-0.7-2.5c0-11.7-0.1-23.5,0-35.2c0-2.5,1.4-4.5,3.9-5.5
			c1.3-0.6,2.7-0.7,4.1-0.7c2.4-0.1,4.9-0.1,7.3,0c1.4,0.1,2.8,0.1,4.1,0.7c2.4,1,3.6,2.8,3.9,5.3c0.5,3.8,0.2,7.6,0.2,11.4
			c0,1.2-0.3,2.5-0.5,3.7c-0.2,1.6-1.3,2.5-2.8,2.8c-1.3,0.3-2.6,0.4-3.9,0.4C724.3,39.9,722.4,39.9,720.3,39.9L720.3,39.9z
			 M720.3,37c0.6,0,1.2,0.1,1.7,0.1c1.2,0,1.3-0.2,1.3-1.3c0-5.1,0-10.1,0-15.2c0-0.5-0.1-1-0.2-1.5c-0.1-0.6-0.5-0.8-1.1-0.8
			c-0.6,0-1.3-0.1-1.5,0.7c-0.2,0.6-0.2,1.2-0.2,1.9c0,5,0,10,0,15C720.3,36.1,720.3,36.5,720.3,37z"/>
		
			<pattern  id="SVGID_00000039851745341144189430000009009693536018017934_" xlink:href="#New_Pattern_Swatch_5" patternTransform="matrix(1.02 0 0 -1 -1521.2802 -15901.4502)">
		</pattern>
		
			<pattern  id="SVGID_00000126322548752676036250000010599635529279406504_" xlink:href="#New_Pattern_Swatch_2" patternTransform="matrix(1.02 0 0 -1 -1546.5901 -15900.9805)">
		</pattern>
		
			<path style="fill:url(#SVGID_00000039851745341144189430000009009693536018017934_);stroke:url(#SVGID_00000126322548752676036250000010599635529279406504_);stroke-miterlimit:10;" d="
			M539.3,38.2c0,0.6,0,0.9,0,1.3c0,5.6,0,11.2,0,16.9c0,0.6,0,1.2,0.2,1.7c0.1,0.5,0.5,1,1.2,1c0.8,0,1.3-0.4,1.5-1.1
			c0.1-0.6,0.1-1.2,0.1-1.8c0-2.6,0-5.2,0-7.8c0-0.8,0-1.7,0.1-2.5c0.2-1.9,1.1-2.9,3-3.1c1.3-0.1,2.7-0.1,4.1,0
			c1.7,0.2,2.5,1.1,2.8,3.1c0.1,0.6,0.1,1.2,0.1,1.9c0,1.9,0,3.8,0,5.7c0,1.4-0.2,2.8-0.7,4.1c-0.8,2.3-2.7,3.4-5.1,3.8
			c-3.4,0.5-6.8,0.2-10.2,0.2c-1.6,0-3-0.4-4.4-1.1c-1.4-0.8-2.2-2-2.7-3.4c-0.2-0.7-0.4-1.4-0.4-2.2c0-11.5,0-23.1,0-34.6
			c0-1.8,0.8-3.4,2-4.6c0.8-0.8,2.1-1.2,3.3-1.5c1.1-0.3,2.3-0.3,3.5-0.4c2.2-0.1,4.4-0.1,6.5,0c1.4,0.1,2.8,0.2,4.1,0.6
			c1.7,0.5,2.8,1.7,3.4,3.4c0.5,1.5,0.7,3,0.7,4.6c0,2.9,0,5.7,0,8.6c0,1.3-0.3,2.5-0.5,3.8c-0.2,1.9-1.5,2.7-3.2,3
			c-1.2,0.2-2.4,0.3-3.7,0.3C543.2,38.2,541.4,38.2,539.3,38.2L539.3,38.2z M539.3,35.4c0.8,0,1.4,0,2,0c0.9,0,1-1.4,1-1.7
			c0-4.9-0.1-15.7-0.2-16.2c-0.2-0.7-0.6-1-1.3-0.9c-0.4,0-0.8,0.2-1.3,0.3c-0.1,0-0.2,12.3-0.2,17.2
			C539.3,34.4,539.3,34.8,539.3,35.4L539.3,35.4z"/>
		
			<pattern  id="SVGID_00000060011441532825659560000012420114607989528717_" xlink:href="#New_Pattern_Swatch_5" patternTransform="matrix(1.02 0 0 -1 -1521.2802 -15901.4502)">
		</pattern>
		
			<pattern  id="SVGID_00000021080435016153007140000009214013733543666582_" xlink:href="#New_Pattern_Swatch_2" patternTransform="matrix(1.02 0 0 -1 -1546.5901 -15900.9805)">
		</pattern>
		
			<path style="fill:url(#SVGID_00000060011441532825659560000012420114607989528717_);stroke:url(#SVGID_00000021080435016153007140000009214013733543666582_);stroke-miterlimit:10;" d="
			M471.7,17.8c0,0-0.1,1.3-0.1,2.3c0,12,0,24,0,36c0,0.7,0,1.3,0.2,2c0.1,0.6,0.7,1,1.3,0.9c1.1-0.1,1.2-1.8,1.2-3.7
			c0-3.5,0-7,0-10.5c0-1.9,1.1-3.2,3-3.4c1.6-0.2,3.2-0.3,4.8,0.2c1.2,0.4,2.1,1.2,2.1,2.5c0.1,3.3,0.2,6.6,0.2,9.9
			c0,1.1-0.3,2.3-0.6,3.4c-0.5,1.7-1.8,2.9-3.5,3.4c-1,0.3-2.1,0.6-3.2,0.6c-3.2,0.1-6.4,0.2-9.6,0c-2.8-0.2-5.2-1.6-6.1-4.5
			c-0.4-1.2-0.5-2.4-0.5-3.7c0-9.5,0-19,0-28.5c0-1.3,0-2.7,0-4c0-1.8,0.7-3.3,1.8-4.6c0.9-1.1,2.2-1.8,3.7-2
			c3.6-0.6,7.3-0.3,11-0.2c1.1,0,2.3,0.4,3.4,0.8c2.1,0.8,3.1,2.5,3.5,4.6c0.5,2.8,0.2,5.7,0.3,8.5c0,1.1,0,2.3-0.4,3.3
			c-0.6,1.4-1.7,1.7-3.3,1.5c-1.1-0.1-2.1,0-3.2-0.1c-2-0.1-3.3-1.6-3.3-3.6c0-3.4,0-6.8,0-10.2c0-0.2,0-0.3,0-0.5
			C474.5,16.5,471.7,16.5,471.7,17.8C471.7,17.8,471.7,17.8,471.7,17.8z"/>
		
			<pattern  id="SVGID_00000132787015052362017770000004595285380196956060_" xlink:href="#New_Pattern_Swatch_5" patternTransform="matrix(1.02 0 0 -1 -1521.2802 -15901.4502)">
		</pattern>
		
			<pattern  id="SVGID_00000092416193733489803580000013837282029716926592_" xlink:href="#New_Pattern_Swatch_2" patternTransform="matrix(1.02 0 0 -1 -1546.5901 -15900.9805)">
		</pattern>
		
			<path style="fill:url(#SVGID_00000132787015052362017770000004595285380196956060_);stroke:url(#SVGID_00000092416193733489803580000013837282029716926592_);stroke-miterlimit:10;" d="
			M416.4,52.2c0-1.4,0-2.8,0-4.2c0-1.7-0.9-2.9-2.1-4.3c-0.8-0.8-1.2-1.3-1.8-1.9c-0.3-0.3-0.5-0.6-0.8-0.8c-2-2-4.1-3.8-6-5.9
			c-1.4-1.5-2.5-3.2-2.4-5.5c0.1-3.1,0-6.3,0.1-9.4c0-2.6,1.7-5,4.3-5.7c1-0.3,2-0.5,3.1-0.6c2.5-0.1,5-0.1,7.6,0
			c1.3,0.1,2.7,0.2,4,0.6c2,0.6,3.4,2.1,3.9,4.2c0.6,2.4,0.6,4.8,0.3,7.2c-0.3,2.2-0.8,2.9-3,3.2c-1.5,0.2-3,0.1-4.4-0.1
			c-1.6-0.2-2.5-1.8-2.5-3.3c0-2.5,0-5,0-7.5c0-1-0.7-1.7-1.5-1.7c-0.7,0-1.2,0.3-1.3,1c-0.1,0.5-0.2,1.1-0.2,1.6c0,2.4,0,4.8,0,7.2
			c0,1.7,0.6,3.2,1.8,4.4c2.4,2.4,4.7,4.8,7,7.1c0.9,0.9,1.7,1.8,2.5,2.6c1.2,1.2,1.6,2.7,1.7,4.3c0.1,3.2,0.1,6.5,0,9.7
			c-0.1,1.3-0.4,2.6-1,3.8c-0.9,1.9-2.7,2.8-4.7,3.1c-3.5,0.6-7.1,0.3-10.7,0.2c-1.1,0-2.3-0.5-3.3-0.9c-2.1-1-3.2-2.8-3.4-5
			c-0.2-2.6-0.1-5.3,0-7.9c0-1.2,0.8-2.1,1.9-2.4c1.6-0.4,3.2-0.6,4.9-0.1c0.2,0.1,2.4,0.6,2.8,2.2c0.6,2.8,0.2,5.7,0.3,8.6
			c0,0.7,0,1.3,0.1,2c0.1,0.7,0.6,1.1,1.4,1.1s1.2-0.3,1.4-1c0.1-0.5,0.2-1.1,0.2-1.6C416.4,55,416.4,53.6,416.4,52.2L416.4,52.2
			L416.4,52.2z"/>
		
			<pattern  id="SVGID_00000135691030739837595220000011660012503639823253_" xlink:href="#New_Pattern_Swatch_5" patternTransform="matrix(1.02 0 0 -1 -1521.2802 -15901.4502)">
		</pattern>
		
			<pattern  id="SVGID_00000140707849801888756140000007679609226787695799_" xlink:href="#New_Pattern_Swatch_2" patternTransform="matrix(1.02 0 0 -1 -1546.5901 -15900.9805)">
		</pattern>
		
			<path style="fill:url(#SVGID_00000135691030739837595220000011660012503639823253_);stroke:url(#SVGID_00000140707849801888756140000007679609226787695799_);stroke-miterlimit:10;" d="
			M375.5,7.5c0-2.2,0.7-2.9,3.1-3.4c1.6-0.3,3.1-0.1,4.6,0.1c1.3,0.2,2,1,2.4,2.1c0.2,0.8,0.3,1.6,0.3,2.5c0,16,0,32,0,48
			c0,1-0.2,2-0.6,2.9c-0.2,0.5-0.8,1-1.3,1.3c-0.5,0.3-0.9,0.6-1.7,0.6c-1.7,0-3.4,0-5.1-0.5c-0.5-0.1-0.7-0.3-0.9-0.7
			c-0.6-0.9-1-1.7-1-2.8C375.5,49.3,375.4,16,375.5,7.5z"/>
		
			<pattern  id="SVGID_00000142153960928137346940000003040856478445757862_" xlink:href="#New_Pattern_Swatch_5" patternTransform="matrix(1.02 0 0 -1 -1521.2802 -15901.4502)">
		</pattern>
		
			<pattern  id="SVGID_00000043424660647800174140000018105749727101972132_" xlink:href="#New_Pattern_Swatch_2" patternTransform="matrix(1.02 0 0 -1 -1546.5901 -15900.9805)">
		</pattern>
		
			<path style="fill:url(#SVGID_00000142153960928137346940000003040856478445757862_);stroke:url(#SVGID_00000043424660647800174140000018105749727101972132_);stroke-miterlimit:10;" d="
			M582.6,32.6c0-7.5,0-15.1,0-22.6c0-0.9,0-1.8,0.1-2.6c0.1-1.8,1.1-2.8,2.9-3.2c1.7-0.4,3.3-0.2,4.9,0.1c1.1,0.2,2,0.8,2.2,2
			c0.2,1.2,0.4,2.3,0.5,3.5c0,15.4,0,30.7,0,46c0,1.1-0.1,2.2-0.2,3.3c-0.1,1.4-1.3,1.9-2.5,2.2c-1.8,0.5-3.7,0.3-5.5,0
			c-1-0.2-2.2-1.7-2.2-2.8c-0.1-1-0.1-1.9-0.1-2.9C582.6,47.9,582.6,40.2,582.6,32.6L582.6,32.6z"/>
		
			<pattern  id="SVGID_00000100360737928611435670000008706959246887182727_" xlink:href="#New_Pattern_Swatch_5" patternTransform="matrix(1.02 0 0 -1 -1521.2802 -15901.4502)">
		</pattern>
		
			<pattern  id="SVGID_00000143617358901257824440000010055375205935322792_" xlink:href="#New_Pattern_Swatch_2" patternTransform="matrix(1.02 0 0 -1 -1546.5901 -15900.9805)">
		</pattern>
		
			<path style="fill:url(#SVGID_00000100360737928611435670000008706959246887182727_);stroke:url(#SVGID_00000143617358901257824440000010055375205935322792_);stroke-miterlimit:10;" d="
			M431.1,17.5c-1.1-0.1-3-0.1-3-0.2c-0.1-0.3-0.2-0.6-0.3-0.9c-0.2-1.6,0.1-2,1.8-2.1c0.4,0,0.9,0,1.4,0c0-0.8,0.1-1.8,0.1-2.7
			c0-2.7,1.8-3.5,3.5-3.7c1.6-0.2,3.1-0.1,4.7,0.3c0.9,0.2,1.6,0.7,1.8,1.6c0.2,0.7,0.4,1.4,0.5,2.1c0.1,0.7,0,1.4,0,2.2
			c0.5,0,0.9,0.1,1.3,0.1c0.6,0,1.3,0,1.9,0c0.8,0.1,1.1,0.4,1.1,1.2c0,0.2,0,0.4,0,0.6c0,0.8-0.3,1.1-1.1,1.2c-0.6,0-1.2,0-1.8,0
			c-0.4,0-0.8,0-1.4,0.1V19c0,12.3,0,24.7,0,37c0,1.1-0.2,2.1-0.4,3.2c-0.3,1.2-1.1,1.8-2.2,2.1c-2.1,0.5-4.2,0.4-6.2-0.3
			c-0.6-0.2-1.1-1.1-1.4-1.8c-0.2-0.5-0.3-1.1-0.3-1.7c0-12.8,0-25.7,0-38.5C431.1,18.5,431.1,18,431.1,17.5L431.1,17.5z"/>
		
			<pattern  id="SVGID_00000052799796488574858540000004747124563492400775_" xlink:href="#New_Pattern_Swatch_5" patternTransform="matrix(1.02 0 0 -1 -1521.2802 -15901.4502)">
		</pattern>
		
			<pattern  id="SVGID_00000104704794454730943840000013675549559061966493_" xlink:href="#New_Pattern_Swatch_2" patternTransform="matrix(1.02 0 0 -1 -1546.5901 -15900.9805)">
		</pattern>
		
			<path style="fill:url(#SVGID_00000052799796488574858540000004747124563492400775_);stroke:url(#SVGID_00000104704794454730943840000013675549559061966493_);stroke-miterlimit:10;" d="
			M764,19c-1-0.1-1.3-0.5-1.3-1.6c0-1.1,0.2-1.4,1.3-1.4c0.6,0,1.2,0,1.9,0c0-1.1,0-2,0.1-3.1c0.3-2.2,1.6-2.7,2.3-3
			c1.4-0.5,2.8-0.5,4.2-0.4c0.8,0.1,1.6,0.3,2.3,0.6c0.9,0.4,1.4,1.2,1.5,2.2c0.1,1.1,0.2,2.1,0.3,3.2c0,0.1,0,0.2,0.1,0.5
			c0.8,0,1.8,0,2.7,0c1.4,0,2.1,1.2,1.5,2.4c-0.3,0.5-0.7,0.6-1.3,0.6c-0.5,0-0.9,0-1.4,0c-0.5,0-0.9,0-1.6,0c0,0.6,0,1,0,1.5
			c0,12.3,0,24.6,0,36.9c0,1.2-0.1,2.4-0.5,3.5c-0.2,0.8-0.7,1.4-1.4,1.7c-2.2,0.9-4.5,0.8-6.7,0.1c-1.2-0.3-1.9-1.6-1.9-2.9
			c0-0.9-0.1-1.8-0.1-2.8c0-12.1,0-24.2,0-36.4V19C766,19,764.6,19,764,19z"/>
		
			<pattern  id="SVGID_00000149342915422543789310000002772188757146067622_" xlink:href="#New_Pattern_Swatch_5" patternTransform="matrix(1.02 0 0 -1 -1521.2802 -15901.4502)">
		</pattern>
		
			<pattern  id="SVGID_00000068660081184937515240000014606056800370354104_" xlink:href="#New_Pattern_Swatch_2" patternTransform="matrix(1.02 0 0 -1 -1546.5901 -15900.9805)">
		</pattern>
		
			<path style="fill:url(#SVGID_00000149342915422543789310000002772188757146067622_);stroke:url(#SVGID_00000068660081184937515240000014606056800370354104_);stroke-miterlimit:10;" d="
			M817.5,16c1.6,0,3.2,0,4.9,0c1.4,0,1.8,0.3,1.8,1.5c0,1.1-0.5,1.5-1.8,1.5c-0.4,0-0.9,0-1.3,0c-1.2,0-1.8,0.7-1.9,1.9
			c0,0.5,0,1,0,1.5c0,11.5,0,23.1,0,34.6c0,1.2-0.1,2.3-0.3,3.5c-0.2,1.2-0.9,2-2.1,2.3c-1.9,0.5-3.9,0.5-5.8,0
			c-1.4-0.4-2.3-1.7-2.3-3.1c0-1.6,0-3.2,0-4.8c0-11.8,0-23.5,0.1-35.2c0-2.6,1.1-3.5,3.6-3.7C814,15.9,815.7,16,817.5,16L817.5,16
			L817.5,16z"/>
		
			<pattern  id="SVGID_00000063619662822511200790000008440798959192994230_" xlink:href="#New_Pattern_Swatch_5" patternTransform="matrix(1.02 0 0 -1 -1521.2802 -15901.4502)">
		</pattern>
		
			<pattern  id="SVGID_00000155106266681759023110000000029840316027733136_" xlink:href="#New_Pattern_Swatch_2" patternTransform="matrix(1.02 0 0 -1 -1546.5901 -15900.9805)">
		</pattern>
		
			<path style="fill:url(#SVGID_00000063619662822511200790000008440798959192994230_);stroke:url(#SVGID_00000155106266681759023110000000029840316027733136_);stroke-miterlimit:10;" d="
			M457.5,37.5c0,6.1,0,12.2,0,18.2c0,1.1-0.1,2.2-0.3,3.2c-0.2,1-0.8,1.7-1.7,2c-2,0.7-4,0.6-6.1,0.2c-1.3-0.3-2.4-1.9-2.4-3.3
			c0-0.8,0-1.5,0-2.3c0-12.5,0-25.1,0-37.6c0-0.6,0.1-1.2,0.2-1.8c0.2-1,0.9-1.6,1.9-1.9c2-0.6,4.1-0.5,6.1,0
			c0.8,0.2,1.4,0.7,1.7,1.6c0.5,1.1,0.5,2.3,0.5,3.4C457.5,25.4,457.5,31.5,457.5,37.5L457.5,37.5z"/>
		
			<pattern  id="SVGID_00000156576771887735030040000009810164009616620168_" xlink:href="#New_Pattern_Swatch_5" patternTransform="matrix(1.02 0 0 -1 -1521.2802 -15901.4502)">
		</pattern>
		
			<pattern  id="SVGID_00000160891791138405446890000006007518258410159537_" xlink:href="#New_Pattern_Swatch_2" patternTransform="matrix(1.02 0 0 -1 -1546.5901 -15900.9805)">
		</pattern>
		
			<path style="fill:url(#SVGID_00000156576771887735030040000009810164009616620168_);stroke:url(#SVGID_00000160891791138405446890000006007518258410159537_);stroke-miterlimit:10;" d="
			M607.4,37.8c0,6.1,0,12.2,0,18.2c0,1-0.2,2-0.3,3c-0.2,1.1-0.8,1.8-1.9,2.1c-1.9,0.7-3.9,0.5-5.8,0.2c-1.2-0.2-2.2-1.5-2.3-2.7
			c-0.1-1.2-0.2-2.4-0.2-3.6c0-11.7,0-23.3,0-35c0-0.9,0.1-1.8,0.2-2.8c0-0.2,0.1-0.5,0.2-0.7c0.5-1.6,1.5-2.4,3.2-2.4
			c1.5,0,3,0.1,4.5,0.3c1.2,0.1,1.9,0.9,2.1,2.1c0.2,1.1,0.3,2.1,0.3,3.2C607.4,25.6,607.4,31.7,607.4,37.8L607.4,37.8z"/>
		
			<pattern  id="SVGID_00000008108233586567594260000015514856699312141502_" xlink:href="#New_Pattern_Swatch_5" patternTransform="matrix(1.02 0 0 -1 -1521.2802 -15901.4502)">
		</pattern>
		
			<pattern  id="SVGID_00000096764818229228260480000016397646184819443075_" xlink:href="#New_Pattern_Swatch_2" patternTransform="matrix(1.02 0 0 -1 -1546.5901 -15900.9805)">
		</pattern>
		
			<path style="fill:url(#SVGID_00000008108233586567594260000015514856699312141502_);stroke:url(#SVGID_00000096764818229228260480000016397646184819443075_);stroke-miterlimit:10;" d="
			M394.7,13.9c1.1,0.1,2.2,0.1,3.3,0.3c1.1,0.2,2,1.4,2.1,2.7c0.1,2,0.2,4,0.2,6c0,10.9,0,21.7,0,32.6c0,1.2-0.3,2.5-0.5,3.7
			c-0.1,0.8-0.7,1.4-1.5,1.7c-2.1,0.7-4.2,0.7-6.3,0.1c-1-0.3-1.6-0.9-1.9-1.9c-0.2-0.8-0.4-1.7-0.4-2.6c0-12.6,0-25.2,0-37.8
			c0-0.9,0.1-1.8,0.4-2.7c0.4-1.5,1.7-2,3.1-2.2C393.7,13.9,394.2,13.9,394.7,13.9C394.7,13.9,394.7,13.9,394.7,13.9z"/>
		
			<pattern  id="SVGID_00000147199098183517937450000001304973434488672640_" xlink:href="#New_Pattern_Swatch_5" patternTransform="matrix(1.02 0 0 -1 -1521.2802 -15901.4502)">
		</pattern>
		
			<pattern  id="SVGID_00000162351718171232900670000017725324110228607377_" xlink:href="#New_Pattern_Swatch_2" patternTransform="matrix(1.02 0 0 -1 -1546.5901 -15900.9805)">
		</pattern>
		
			<path style="fill:url(#SVGID_00000147199098183517937450000001304973434488672640_);stroke:url(#SVGID_00000162351718171232900670000017725324110228607377_);stroke-miterlimit:10;" d="
			M446.5,6.3c0-2.6,1.5-4.9,3.9-5.5c2.1-0.5,4.2-0.3,5.8,1.3c1.6,1.5,2,3.2,1.6,5.4c-0.4,2-1.5,3.4-3.4,4c-3.8,1.3-6.6-0.1-7.8-3.9
			C446.6,7.3,446.5,6.7,446.5,6.3L446.5,6.3z"/>
		
			<pattern  id="SVGID_00000147181352718436862790000018219068392312157628_" xlink:href="#New_Pattern_Swatch_5" patternTransform="matrix(1.02 0 0 -1 -1521.2802 -15901.4502)">
		</pattern>
		
			<pattern  id="SVGID_00000093160432101441562950000007935238093112941185_" xlink:href="#New_Pattern_Swatch_2" patternTransform="matrix(1.02 0 0 -1 -1546.5901 -15900.9805)">
		</pattern>
		
			<path style="fill:url(#SVGID_00000147181352718436862790000018219068392312157628_);stroke:url(#SVGID_00000093160432101441562950000007935238093112941185_);stroke-miterlimit:10;" d="
			M601.8,11.9c-3,0-5.4-2.5-5.5-5.6c-0.2-3.6,3.2-5.8,5.7-5.7c2.8,0.1,5.8,1.9,5.8,5.7C607.8,9.8,605.1,12,601.8,11.9L601.8,11.9z"
			/>
		
			<pattern  id="SVGID_00000024717675435733335490000017570649947493751487_" xlink:href="#New_Pattern_Swatch_5" patternTransform="matrix(1.02 0 0 -1 -1521.2802 -15901.4502)">
		</pattern>
		
			<pattern  id="SVGID_00000086682386735834943600000012469460543977133749_" xlink:href="#New_Pattern_Swatch_2" patternTransform="matrix(1.02 0 0 -1 -1546.5901 -15900.9805)">
		</pattern>
		
			<path style="fill:url(#SVGID_00000024717675435733335490000017570649947493751487_);stroke:url(#SVGID_00000086682386735834943600000012469460543977133749_);stroke-miterlimit:10;" d="
			M395,11.9c-2.9,0.1-5.8-2.2-5.8-5.7c0-1.6,0.5-2.9,1.7-4c1.1-1.1,2.5-1.7,4.2-1.6c3.4,0.1,5.6,2.2,5.7,5.7
			C400.8,9.5,398.2,11.9,395,11.9L395,11.9z"/>
		
			<pattern  id="SVGID_00000010281218457945630630000000033985021570229674_" xlink:href="#New_Pattern_Swatch_5" patternTransform="matrix(1.02 0 0 -1 -1521.2802 -15901.4502)">
		</pattern>
		
			<pattern  id="SVGID_00000178918831737951086350000016215837684138195874_" xlink:href="#New_Pattern_Swatch_2" patternTransform="matrix(1.02 0 0 -1 -1546.5901 -15900.9805)">
		</pattern>
		
			<path style="fill:url(#SVGID_00000010281218457945630630000000033985021570229674_);stroke:url(#SVGID_00000178918831737951086350000016215837684138195874_);stroke-miterlimit:10;" d="
			M652.8,3.1c0.2-1.2,1-2,2.2-2.3c1.5-0.4,3-0.3,4.5,0c1.5,0.3,2.2,1.4,2.3,2.8c0.1,2.2,0.3,4.4-0.2,6.6c-0.2,0.9-0.8,1.5-1.8,1.8
			c-1.3,0.4-2.6,0.5-4,0.3c-2.1-0.3-3.1-1.2-3.2-3.4c0-0.8-0.1-1.7-0.1-2.5l0,0C652.6,6.3,652.7,4.2,652.8,3.1z"/>
	</g>
</g>
</svg>
