<?xml version="1.0" encoding="UTF-8"?>
<svg id="Layer_2" data-name="Layer 2" xmlns="http://www.w3.org/2000/svg" xmlns:xlink="http://www.w3.org/1999/xlink" viewBox="0 0 734.97 63.74">
  <defs>
    <pattern id="New_Pattern_Swatch_5" data-name="New Pattern Swatch 5" x="0" y="0" width="58.85" height="58.85" patternTransform="translate(-2494.44 -2475.73) scale(.91)" patternUnits="userSpaceOnUse" viewBox="0 0 58.85 58.85">
      <g>
        <rect y="0" width="58.85" height="58.85" style="fill: none;"/>
        <rect x="0" y="0" width="58.85" height="58.85" style="fill: #d5ab29;"/>
      </g>
    </pattern>
    <pattern id="New_Pattern_Swatch_2" data-name="New Pattern Swatch 2" x="0" y="0" width="58.85" height="58.85" patternTransform="translate(-2516.99 -2476.16) scale(.91)" patternUnits="userSpaceOnUse" viewBox="0 0 58.85 58.85">
      <g>
        <rect y="0" width="58.85" height="58.85" style="fill: none;"/>
        <rect x="0" y="0" width="58.85" height="58.85" style="fill: #9a7744;"/>
      </g>
    </pattern>
  </defs>
  <g id="Layer_1-2" data-name="Layer 1">
    <g>
      <path d="m454.57,28h3.25c0-.44,0-.84,0-1.25,0-5.94-.01-11.88.02-17.82,0-.88-.12-1.77.22-2.67.35-.91.84-1.52,1.8-1.8,1.95-.56,3.89-.58,5.84,0,.98.29,1.56.93,1.72,1.92.17,1.11.38,2.24.38,3.36.03,13.48.03,26.95,0,40.43,0,1.12-.23,2.24-.37,3.36-.13,1.02-.76,1.61-1.7,1.93-1.48.5-2.99.48-4.51.31-.47-.06-.97-.12-1.4-.31-1.34-.6-1.93-1.69-1.94-3.14-.01-6.66-.03-13.32-.04-19.98,0-.41,0-.81,0-1.28h-3.2c-.02.39-.04.79-.04,1.19,0,6.01,0,12.03-.01,18.04,0,.94-.08,1.89-.21,2.82-.2,1.33-.98,2.21-2.32,2.5-1.66.36-3.33.37-4.98-.01-1.48-.35-2.44-1.42-2.45-3.11-.05-14.24-.03-28.47-.03-42.71,0-1.01-.11-2.03.05-3.01.16-.95.59-1.82,1.67-2.19,1.97-.67,3.95-.69,5.95-.19,1.33.33,1.96,1.27,2.11,2.53.14,1.2.21,2.42.22,3.63.02,5.37,0,10.73,0,16.1,0,.41,0,.83,0,1.35Z" style="fill: url(#New_Pattern_Swatch_5); stroke: url(#New_Pattern_Swatch_2); stroke-miterlimit: 10;"/>
      <path d="m296.44,27.96c0-.48,0-.89,0-1.3.01-6.36.02-12.71.04-19.07,0-1.71.93-2.9,2.55-3.28,1.89-.45,3.77-.32,5.6.27.78.25,1.25.92,1.39,1.69.19,1.07.35,2.17.36,3.25.04,4.61.02,9.21.02,13.82,0,8.98.01,17.97-.02,26.95,0,1.12-.16,2.26-.35,3.37-.15.85-.72,1.39-1.54,1.78-1.52.73-3.07.35-4.62.34-.45,0-.93-.05-1.33-.22-1.36-.57-2.03-1.7-2.04-3.12-.05-6.66-.04-13.32-.05-19.98,0-.42,0-.83,0-1.4-1.09-.11-2.12-.04-3.27-.04,0,.5,0,.91,0,1.32,0,6.01.02,12.03-.02,18.04,0,1.05-.21,2.1-.35,3.14-.13,1.01-.76,1.62-1.7,1.94-1.48.51-2.99.48-4.51.32-.45-.05-.92-.06-1.33-.24-1.36-.58-2.02-1.71-2.02-3.13-.04-11.99-.04-23.98-.05-35.97,0-2.97.01-5.94.03-8.91.01-1.58.89-2.78,2.38-3.18,1.96-.52,3.91-.4,5.81.25.7.24,1.2.81,1.32,1.54.2,1.15.39,2.32.4,3.48.04,5.67.02,11.34.02,17.02,0,.42,0,.83,0,1.33h3.27Z" style="fill: url(#New_Pattern_Swatch_5); stroke: url(#New_Pattern_Swatch_2); stroke-miterlimit: 10;"/>
      <path d="m207.51,50.65c.05-.33.12-.65.15-.98.27-4.22.53-8.43.8-12.65.18-2.81.37-5.62.55-8.43.2-3.07.38-6.14.59-9.21.09-1.21.2-2.43.41-3.62.37-2.08,1.63-2.82,3.25-3.08,1.6-.25,3.14-.16,4.71.06,1.44.2,2.56,1.28,2.77,2.8.21,1.61.37,3.23.47,4.86.32,5.47.59,10.95.89,16.42.23,4.37.47,8.74.7,13.11.01.25-.01.8.27.78.17.01.26-.13.21-.54.32-5.17.63-10.33.95-15.5.25-4.1.52-8.21.78-12.31.17-2.66.32-5.32.52-7.98.09-1.25.49-1.58,1.75-1.59,1.34-.02,1.81.43,1.73,1.78-.15,2.51-.35,5.01-.54,7.52-.35,4.63-.71,9.26-1.07,13.89-.26,3.34-.52,6.68-.78,10.02-.11,1.44-.17,2.89-.36,4.32-.15,1.14-.43,2.28-.74,3.39-.18.64-.7,1.09-1.33,1.33-1.8.68-3.65.82-5.54.49-.41-.07-.83-.14-1.22-.28-2.41-.77-2.66-5.06-2.68-5.44-.19-3.88-.39-7.76-.58-11.63-.28-5.67-.56-11.33-.85-17-.04-.73-.09-1.47-.13-2.2-.04-.15-.17-.11-.23-.03-.06.15-.16.29-.17.44-.32,4.4-.62,8.81-.93,13.21-.34,4.75-.68,9.49-1.03,14.24-.09,1.25-.19,2.5-.28,3.76-.08,1.12-.44,2.18-.84,3.21-.27.7-.9,1.14-1.61,1.36-2.19.67-4.42.72-6.63.2-1.71-.4-2.64-1.56-2.84-3.39-.17-1.61-.31-3.23-.42-4.84-.41-6-.8-12-1.21-18-.27-3.91-.57-7.82-.82-11.73-.07-1.08-.22-2.17.31-3.21.36-.7.87-1.2,1.59-1.35,1.36-.28,4.5-.12,4.69-.1,1.18.12,1.98.77,2.24,1.93.21.95.38,1.93.44,2.9.31,5.51.59,11.02.87,16.54.17,3.35.34,6.69.51,10.04.1,1.94.19,3.88.29,5.82.01.24.09.48.13.72.09,0,.18-.01.27-.02Z" style="fill: url(#New_Pattern_Swatch_5); stroke: url(#New_Pattern_Swatch_2); stroke-miterlimit: 10;"/>
      <path d="m107.01,50.68c.06-.19.15-.38.16-.58.32-5.05.63-10.09.95-15.14.26-3.99.54-7.97.79-11.96.13-2.01.2-4.03.37-6.04.09-1.05.39-2.06.98-2.97.44-.68,1.14-1.06,1.86-1.19,1.43-.25,2.89-.58,4.36-.09.45.15.94.19,1.42.24,1.31.13,1.94,1.02,2.25,2.12.28,1.02.42,2.09.48,3.15.4,6.95.76,13.91,1.12,20.87.19,3.69.34,7.38.51,11.06,0,.17.04.56.29.56.28-.02.22-.39.24-.59.11-1.4.21-2.81.29-4.21.27-4.41.53-8.82.8-13.22.26-4.1.53-8.2.79-12.31.12-1.98.24-3.95.34-5.93.06-1.13.44-1.57,1.55-1.66.23-.02.46-.02.68.01.97.13,1.33.51,1.33,1.51,0,.72-.1,1.44-.16,2.16-.15,1.89-.3,3.77-.44,5.66-.36,4.59-.71,9.18-1.07,13.77-.34,4.52-.67,9.03-1.03,13.55-.08,1.05-.17,2.12-.45,3.13-.38,1.36-1.27,2.44-2.66,2.79-1.93.49-3.91.41-5.84-.14-1.14-.33-1.87-1.09-2.2-2.21-.27-.93-.46-1.87-.49-2.87-.11-3.77-.33-7.53-.51-11.29-.22-4.6-.45-9.2-.68-13.8-.08-1.67-.16-3.35-.25-5.02-.02-.36-.05-1.15-.35-1.1-.15-.02-.17.44-.19.67-.26,3.64-.51,7.29-.77,10.94-.26,3.76-.53,7.52-.8,11.28-.19,2.62-.35,5.24-.56,7.86-.1,1.22-.18,2.47-.74,3.58-.46.93-1.14,1.66-2.26,2.01-1.76.54-3.53.36-5.3.37-1.53,0-3.18-1.39-3.56-2.85-.15-.57-.21-1.18-.25-1.77-.29-3.95-.58-7.9-.85-11.85-.26-3.72-.5-7.44-.75-11.16-.24-3.53-.49-7.06-.71-10.6-.05-.76-.01-1.52.03-2.28.08-1.39.97-2.14,2.14-2.39,1.66-.37,3.31-.28,4.97.18,1.1.31,1.62,1.02,1.76,1.98.24,1.57.36,3.15.45,4.73.31,5.59.59,11.18.88,16.76.23,4.49.47,8.97.71,13.46.01.27.08.54.12.82.07,0,.14,0,.21,0Z" style="fill: url(#New_Pattern_Swatch_5); stroke: url(#New_Pattern_Swatch_2); stroke-miterlimit: 10;"/>
      <path d="m616.76,54.15c.62.4.93.84,1.75.7.82-.14,1.12-.52,1.28-1.14.14-.54.16-1.13.17-1.69.03-4.49.04-8.98.04-13.47,0-.67-.03-1.29.34-1.94.66-1.17,1.65-1.65,2.89-1.72,1.02-.06,2.06-.11,3.07.02,2.18.27,2.6.87,3.1,3.11.12.55.08,1.14.08,1.71,0,3.31,0,6.62,0,9.93,0,1.26-.07,2.51-.5,3.71-.77,2.14-2.32,3.36-4.52,3.69-1.34.2-2.7.25-4.06.28-2.25.04-4.49.01-6.74-.02-2.27-.03-4.18-.9-5.71-2.59-.14-.16-.25-.36-.33-.56-.6-1.4-.85-2.85-.84-4.39.04-7.46.02-14.92.02-22.38,0-5.37,0-10.73.03-16.1,0-.53.27-1.07.46-1.58.83-2.23,2.48-3.47,4.8-3.82,3.59-.55,7.2-.29,10.8-.2,1.06.03,2.16.34,3.16.73,1.58.62,2.61,1.85,2.97,3.51.24,1.13.4,2.3.42,3.46.06,2.51-.03,5.02.04,7.54.03,1.31-.27,2.51-.73,3.7-.26.68-.86.93-1.48,1.13-1.22.4-2.47.28-3.72.25-.61-.01-1.17-.1-1.74-.36-1.14-.52-1.64-1.45-1.73-2.59-.12-1.51-.11-3.04-.12-4.56-.02-2.55.02-5.1-.02-7.65,0-.62-.13-1.28-.34-1.86-.26-.72-.88-.95-1.75-.82-.57.08-.96.56-1.01,1.3-.05.61-.08,1.22-.08,1.82,0,13.44,0,26.87,0,40.31,0,.87,0,1.75,0,2.56Z" style="fill: url(#New_Pattern_Swatch_5); stroke: url(#New_Pattern_Swatch_2); stroke-miterlimit: 10;"/>
      <path d="m576.61,41.59c.58.29,1.1.59,1.65.81,1.43.56,2.87,1.09,4.32,1.6,1.23.43,2.49.79,3.72,1.23.64.23,1.24.56,1.86.86,1.35.63,1.92,1.83,1.96,3.19.08,2.89.2,5.8-.03,8.68-.21,2.7-1.5,4.44-4.34,5.01-.73.15-1.49.25-2.23.25-2.82.03-5.64.08-8.45-.04-1.16-.05-2.35-.3-3.44-.89-1.5-.82-2.17-2.1-2.26-3.71-.07-1.33-.06-2.67-.01-4,.05-1.56.96-2.62,2.54-2.79,1.27-.14,2.59-.18,3.85-.03,1.94.22,2.35.87,2.49,2.87.11,1.59.02,3.2.05,4.8.02.95.56,1.48,1.46,1.5.89.02,1.38-.35,1.47-1.24.09-.87.08-1.75.08-2.62,0-1.33-.04-2.67-.02-4,.02-1.04-.52-1.62-1.42-1.96-.71-.27-1.42-.53-2.13-.8-1.85-.7-3.71-1.38-5.55-2.1-.46-.18-.9-.41-1.32-.67-.83-.52-1.36-1.16-1.32-2.28.05-1.09.15-2.1.9-2.94.19-.21.39-.42.63-.57,1.28-.8,2.57-1.58,3.82-2.34-.86-.32-1.77-.57-2.59-1-1.86-.98-2.61-2.66-2.97-4.67-.13-.73.02-1.38.02-2.06,0-4.57.01-9.14.05-13.71,0-.46.19-.92.31-1.38.03-.1.13-.19.17-.29.88-2.46,2.94-3.33,5.24-3.5,2.88-.21,5.79-.17,8.68-.05,1.16.05,2.38.22,3.48.85,1.45.83,2.38,1.98,2.66,3.62.17,1,.32,2.02.33,3.03.04,3.73,0,7.46.02,11.19,0,1.51-.17,3.01-.64,4.43-.51,1.58-1.72,2.57-3.28,3.1-1.12.37-2.27.56-3.46.52-.49-.02-1,.05-1.48,0-1.87-.22-3.26.79-4.65,1.78-.05.04-.06.13-.14.35Zm4.57-15.97c0-2.66,0-5.33,0-7.99,0-.53-.05-1.07-.15-1.58-.15-.75-.48-1.01-1.14-1.05-.71-.04-1.07.24-1.35.97-.21.57-.11,1.14-.11,1.71,0,1.67,0,3.35,0,5.02.01,4.39.03,8.78.04,13.16,0,.6.52,1.24,1.04,1.29.8.07,1.45-.43,1.5-1.18.07-1.02.15-2.03.16-3.05.02-2.43,0-4.87,0-7.3Z" style="fill: url(#New_Pattern_Swatch_5); stroke: url(#New_Pattern_Swatch_2); stroke-miterlimit: 10;"/>
      <path d="m554.13,16.03c.2-.27.4-.54.61-.8,1.61-1.96,3.77-2.6,6.21-2.51.67.02,1.35.1,2,.28,1.37.37,2.38,1.22,2.76,2.62.22.83.41,1.71.42,2.57.03,11.12.02,22.24,0,33.35,0,.67-.12,1.36-.26,2.02-.25,1.16-1.04,1.84-2.16,2.07-1.62.34-3.25.4-4.85-.12-1.2-.38-2.01-1.49-2.06-2.75-.03-.87-.04-1.75-.04-2.63,0-9.79,0-19.57,0-29.36,0-.86-.1-1.73-.18-2.59-.05-.53-.57-.79-1.12-.62-.68.21-1.38,1.16-1.4,1.9-.01.84,0,1.68,0,2.51,0,9.63,0,19.27,0,28.9,0,.98-.17,1.91-.41,2.87-.23.91-.74,1.41-1.51,1.67-1.9.66-3.83.65-5.7-.05-1.23-.46-1.61-1.58-1.74-2.79-.02-.23,0-.46,0-.68,0-11.92.03-23.83,0-35.75,0-1.14.45-1.94,1.18-2.67.22-.23.54-.44.84-.5,1.75-.38,3.52-.42,5.26.02,1.08.27,1.68,1.09,1.85,2.2.03.22,0,.45,0,.67.1.05.21.11.31.16Z" style="fill: url(#New_Pattern_Swatch_5); stroke: url(#New_Pattern_Swatch_2); stroke-miterlimit: 10;"/>
      <path d="m666.03,17.41c.44-.41.78-.7,1.1-1.01,2.26-2.21,4.96-2.64,7.92-1.87,1.62.42,2.63,1.47,2.85,3.18.12.89.28,1.79.29,2.69.02,10.62.02,21.24,0,31.86,0,.94-.09,1.9-.28,2.82-.23,1.15-.98,1.76-2.18,2.01-1.51.31-3.01.38-4.49.01-1.65-.41-2.51-1.74-2.41-3.44.04-.64-.02-1.29-.02-1.94,0-10.09,0-20.17,0-30.26,0-.49.01-.99-.06-1.48-.12-.87-.84-1.19-1.59-.69-.52.35-.9.82-.96,1.48-.04.42-.04.84-.04,1.25,0,9.97,0,19.95-.02,29.92,0,1.08-.23,2.16-.36,3.24-.09.74-.51,1.31-1.16,1.59-1.84.79-3.76.73-5.67.29-1.33-.31-1.88-1.34-2.06-2.59-.09-.64-.11-1.29-.11-1.94,0-11.12,0-22.23,0-33.35,0-.84.06-1.67.11-2.51.05-.78,1.06-1.9,1.82-2.1,1.41-.38,2.81-.47,4.27-.26,2.01.29,2.72.92,3.06,3.1Z" style="fill: url(#New_Pattern_Swatch_5); stroke: url(#New_Pattern_Swatch_2); stroke-miterlimit: 10;"/>
      <path d="m93.31,33.93c0,4.72.02,9.44-.02,14.16,0,1.09-.06,2.21-.35,3.25-.48,1.74-1.49,3.08-3.34,3.71-1.26.43-2.54.62-3.84.64-2.36.04-4.72,0-7.08,0-1.22,0-2.41-.22-3.52-.74-1.32-.61-2.29-1.56-2.79-2.95-.36-.99-.6-2-.59-3.07.02-10.2,0-20.41.03-30.61,0-2.8,2.22-5.19,4.99-5.61,3.44-.52,6.9-.22,10.35-.2.66,0,1.33.19,1.98.37,2.49.69,3.72,2.5,4.1,5.29.1.71.08,1.44.08,2.17,0,4.53,0,9.06,0,13.59Zm-12.15.4h0c0,5.59,0,11.18,0,16.77,0,.34-.05.69-.02,1.02.05.61.56,1.17,1.11,1.26.49.08,1.22-.3,1.36-.8.15-.57.29-1.17.29-1.75.02-11.25.01-22.51,0-33.76,0-.44-.12-.88-.24-1.31-.23-.82-.44-.98-1.12-.98-.67,0-1.05.26-1.2.97-.12.59-.17,1.2-.17,1.81-.01,5.59,0,11.18,0,16.77Z" style="fill: url(#New_Pattern_Swatch_5); stroke: url(#New_Pattern_Swatch_2); stroke-miterlimit: 10;"/>
      <path d="m172.26,34.43c0-4.8-.02-9.59.02-14.39,0-1.09.11-2.21.35-3.28.41-1.81,1.59-3.06,3.33-3.72.87-.33,1.77-.58,2.74-.57,2.55.02,5.1-.08,7.65,0,1.26.04,2.53.25,3.75.58,1.86.5,3.39,2.6,3.51,4.65.1,1.81.19,3.63.19,5.45.02,8.34,0,16.67.02,25.01,0,1.79-.42,3.46-1.24,5.01-.57,1.08-1.63,1.68-2.79,2.04-1.49.46-3.03.53-4.58.5-2.13-.04-4.26-.03-6.4-.02-1.35,0-2.59-.35-3.74-1.04-1.69-1.01-2.64-2.59-2.68-4.47-.11-5.25-.04-10.5-.04-15.75-.03,0-.06,0-.09,0Zm12.14-.53c0-5.44,0-10.88,0-16.31,0-.6-.05-1.22-.17-1.81-.14-.71-.52-.98-1.18-.99-.7-.01-1.15.31-1.28,1.04-.1.56-.1,1.13-.1,1.7,0,11.03,0,22.06,0,33.08,0,.57,0,1.14.05,1.71.03.43.57,1.03.9,1.06.39.04,1.44-.42,1.57-.7.03-.07.04-.15.04-.22.07-.71.18-1.42.18-2.13.02-5.48,0-10.95,0-16.43Z" style="fill: url(#New_Pattern_Swatch_5); stroke: url(#New_Pattern_Swatch_2); stroke-miterlimit: 10;"/>
      <path d="m309.9,34.61c0-4.87,0-9.74,0-14.62,0-1.46.18-2.87.82-4.21.61-1.26,1.62-2.07,2.89-2.53.94-.34,1.92-.59,2.95-.59,2.55.02,5.1-.06,7.65,0,1.11.03,2.25.2,3.32.53,1.59.48,2.71,1.5,3.26,3.2.43,1.32.64,2.61.64,3.98-.01,9.33-.02,18.65.01,27.98,0,1.46-.24,2.85-.75,4.19-.47,1.22-1.38,2.13-2.59,2.58-.98.36-2.05.68-3.08.72-2.89.09-5.79.06-8.68.02-1.38-.02-2.69-.42-3.89-1.16-.55-.34-1-.78-1.33-1.31-.66-1.07-1.18-2.18-1.17-3.48.01-5.1,0-10.2,0-15.3-.01,0-.03,0-.04,0Zm9.39-.41c0,5.55,0,11.11,0,16.66,0,.57,0,1.14.05,1.71.05.55.69,1.01,1.31,1.01.66,0,1.1-.33,1.17-.98.1-.89.21-1.79.21-2.69.01-9.7.02-19.4,0-29.1,0-1.51-.1-3.01-.18-4.52-.04-.7-.66-1.32-1.26-1.3-.73.03-1.23.51-1.27,1.29-.03.53-.04,1.06-.04,1.6,0,5.44,0,10.88,0,16.32Z" style="fill: url(#New_Pattern_Swatch_5); stroke: url(#New_Pattern_Swatch_2); stroke-miterlimit: 10;"/>
      <path d="m506.52,30.23v-3.79c0-2.78,0-5.56,0-8.34,0-.3,0-.61,0-.91-.03-1.72-.37-2.04-2.26-1.9-.16,0-.28,1.11-.29,1.69-.04,1.86,0,3.73-.02,5.6-.02,1.13-.08,2.26-.2,3.39-.1.9-.48,1.73-1.4,2.07-1.83.68-3.71.71-5.56.1-1.11-.37-1.67-1.3-1.69-2.44-.05-2.7-.2-7.53.5-9.44.57-1.58,1.74-2.54,3.27-3.04.81-.27,1.68-.46,2.53-.49,2.4-.08,4.8-.08,7.2-.05.93.01,1.89.09,2.79.32,2.03.53,3.5,1.65,4.06,3.84.33,1.3.47,2.58.47,3.9,0,9.97,0,19.95,0,29.92,0,.53-.04,1.07-.04,1.6-.01,1.97-1.17,3.37-3.23,3.53-1.35.1-2.73,0-4.09-.15-1-.11-1.82-1.25-1.87-2.29,0-.22,0-.44,0-.84-.32.32-.53.51-.72.72-1.98,2.15-4.42,2.88-7.31,2.53-2.02-.24-3.5-1.96-3.61-3.85-.06-.95-.15-1.9-.15-2.85.01-3.62.03-7.23.1-10.85.03-1.79,1.03-3.52,2.13-4.22.83-.53,1.69-1.03,2.61-1.38,1.95-.74,3.94-1.38,5.91-2.06.28-.1.56-.21.88-.34Zm0,2.69c-.49.15-.84.27-1.2.37-.92.26-1.41.84-1.4,1.82,0,.57-.07,1.14-.07,1.71,0,3.04,0,6.09,0,9.13,0,1.14-.01,2.28,0,3.42.01.65.08,1.58.71,1.7,1.6.26,1.95-.96,1.95-2.68,0-2.55,0-5.1,0-7.65v-7.82Z" style="fill: url(#New_Pattern_Swatch_5); stroke: url(#New_Pattern_Swatch_2); stroke-miterlimit: 10;"/>
      <path d="m705.85,36.21c0,.53,0,.9,0,1.28,0,4.99,0,9.98,0,14.96,0,.57.03,1.15.14,1.7.12.63.5.89,1.14.9.64.01,1.02-.21,1.17-.84.13-.51.17-1.05.17-1.58.03-3.08.02-6.17.05-9.25.02-1.78.82-2.64,2.54-3.02,1.32-.3,2.6-.21,3.91.01,1.18.2,1.91.87,2.17,2.01.15.65.24,1.33.25,2,.03,2.06.05,4.11,0,6.17-.03,1.16-.16,2.33-.65,3.42-.75,1.69-2.06,2.66-3.84,3.1-1.49.37-2.99.42-4.51.41-1.9-.01-3.81.13-5.71-.01-1.49-.11-2.95-.6-4.13-1.61-1.17-1-1.82-2.31-1.95-3.84-.09-1.06-.15-2.13-.16-3.19-.01-8.95-.02-17.9,0-26.84,0-1.31.02-2.63.5-3.91.84-2.24,2.5-3.38,4.78-3.72,1.01-.15,2.04-.2,3.07-.21,1.83-.03,3.66.01,5.49,0,1.38-.01,2.68.37,3.94.85,1.76.68,2.57,2.17,2.95,3.9.19.88.27,1.79.28,2.69.03,2.89.01,5.79.01,8.68,0,1.09-.22,2.14-.46,3.21-.31,1.36-1.15,2.05-2.35,2.32-1.18.26-2.41.36-3.62.41-1.67.07-3.34.02-5.2.02Zm2.59-2.62c.04-.34.08-.49.08-.64,0-4.87,0-9.74,0-14.61,0-.4-.1-.82-.26-1.19-.1-.22-.39-.47-.63-.51-1.15-.21-1.53.09-1.7,1.24-.05.34-.07.68-.07,1.02,0,4.6,0,9.21,0,13.81,0,.29.06.58.1.87h2.49Z" style="fill: url(#New_Pattern_Swatch_5); stroke: url(#New_Pattern_Swatch_2); stroke-miterlimit: 10;"/>
      <path d="m641.99,36.21c0,.5,0,.83,0,1.17,0,5.1,0,10.2,0,15.3,0,.49.03.99.12,1.47.13.65.53.92,1.21.91.63-.01,1.03-.28,1.15-.89.1-.52.11-1.06.12-1.59.01-2.59-.01-5.18.02-7.76,0-.79.09-1.6.23-2.38.18-1.02.83-1.71,1.81-1.98,1.05-.29,2.11-.46,3.21-.14.56.17,1.16.21,1.75.28.93.12,1.4.73,1.61,1.55.17.66.3,1.34.31,2.02.04,2.17.05,4.34-.01,6.51-.03.93-.17,1.89-.45,2.78-.74,2.38-2.56,3.61-4.9,3.79-3.14.24-6.31.37-9.44.19-2.26-.13-4.3-1.09-5.41-3.36-.36-.74-.66-1.45-.66-2.28,0-10.65-.06-21.31.04-31.96.02-2.26,1.27-4.06,3.47-5,1.17-.5,2.42-.64,3.66-.67,2.17-.06,4.34-.08,6.51,0,1.23.05,2.48.12,3.67.61,2.16.9,3.17,2.57,3.44,4.81.42,3.44.14,6.9.18,10.35.01,1.11-.26,2.23-.41,3.34-.19,1.49-1.18,2.26-2.53,2.53-1.15.23-2.33.34-3.5.39-1.67.06-3.34.02-5.18.02Zm0-2.6c.56.03,1.05.09,1.53.08,1.05-.02,1.17-.14,1.17-1.2,0-4.6,0-9.21,0-13.81,0-.45-.08-.91-.17-1.35-.11-.52-.45-.73-1-.71-.54.02-1.13-.07-1.3.62-.13.55-.21,1.12-.21,1.68-.02,4.53,0,9.05,0,13.58,0,.34,0,.67,0,1.11Z" style="fill: url(#New_Pattern_Swatch_5); stroke: url(#New_Pattern_Swatch_2); stroke-miterlimit: 10;"/>
      <path d="m31.79,34.49c-.02.3-.05.49-.05.68,0,5.52,0,11.04-.01,16.56,0,.72.19,1.25.81,1.62.06,0,.14.04.21.03,1.32-.24,1.52-1.27,1.54-2.33.04-3.05.05-6.09.03-9.14-.01-1.86,1.01-3.09,2.83-3.36,1.44-.22,2.86-.09,4.26.26.79.2,1.34.77,1.53,1.56.17.73.3,1.48.31,2.22.04,2.06.05,4.11,0,6.17-.02.9-.15,1.8-.35,2.68-.4,1.78-2.77,3.76-4.61,4.03-2.91.43-5.84.15-8.76.22-1.91.05-3.67-.44-5.21-1.61-.12-.09-.31-.12-.37-.23-.72-1.21-1.54-2.36-1.54-3.87,0-8.03-.04-16.07-.05-24.1,0-2.59.04-5.18.07-7.77.03-2.29,1.75-4.46,3.68-5.1.82-.27,1.69-.48,2.55-.51,2.47-.08,4.95-.11,7.43-.04,1.18.03,2.4.21,3.53.57,1.28.4,2.24,1.21,2.83,2.57.68,1.56.96,3.12.95,4.79-.01,2.4-.08,4.8.02,7.19.07,1.64-.41,3.17-.7,4.74-.14.78-.83,1.31-1.58,1.52-.92.27-1.89.51-2.84.55-1.94.09-3.88.03-5.83.04-.18,0-.37.02-.66.04Zm2.5-2.62c.05-.51.12-.95.12-1.39,0-4.33,0-8.66,0-12.99,0-.53-.03-1.06-.11-1.59-.12-.81-.46-1.1-1.17-1.12-.7-.01-1.15.3-1.3,1.02-.09.4-.08.83-.08,1.25,0,4.63,0,9.26,0,13.9,0,.29.03.59.04.92h2.51Z" style="fill: url(#New_Pattern_Swatch_5); stroke: url(#New_Pattern_Swatch_2); stroke-miterlimit: 10;"/>
      <path d="m240.24,34.43c-.03.39-.05.61-.05.83,0,5.48.01,10.96-.01,16.44,0,.77.22,1.32.89,1.68,1,.36,1.67-.8,1.68-2.31.02-3.08.02-6.17.01-9.25,0-1.67.95-2.91,2.59-3.23,1.55-.3,3.09-.14,4.59.25.74.19,1.26.76,1.44,1.5.17.73.3,1.48.32,2.22.04,2.09.06,4.19,0,6.28-.03.93-.12,1.91-.43,2.78-.74,2.11-2.25,3.5-4.51,3.81-1.53.21-3.09.22-4.64.26-1.6.04-3.2-.06-4.8,0-1.74.07-3.18-.68-4.6-1.51-.21-.12-.34-.39-.48-.61-.33-.51-.65-1.02-.95-1.54-.31-.54-.43-1.12-.43-1.77,0-10.2-.05-20.4-.07-30.6,0-.76-.04-1.53.08-2.28.1-.57.43-1.09.65-1.64.57-1.39,1.66-2.23,3.01-2.73.84-.31,1.7-.55,2.63-.55,2.36.02,4.72-.08,7.08-.01,1.26.04,2.55.21,3.76.56,1.77.51,2.91,1.81,3.36,3.57.29,1.12.41,2.31.43,3.47.06,2.74.05,5.48,0,8.22-.02,1.09-.15,2.2-.37,3.28-.26,1.29-1.02,2.18-2.4,2.43-.8.14-1.6.39-2.41.41-2.09.06-4.18.02-6.38.02Zm2.5-2.54c.04-.55.11-.99.11-1.44,0-4.33,0-8.66,0-12.99,0-.53-.03-1.06-.11-1.59-.12-.8-.47-1.09-1.2-1.09-.7,0-1.13.33-1.28,1.04-.08.37-.07.75-.07,1.13,0,4.67,0,9.34,0,14.01,0,.29.04.58.06.91h2.49Z" style="fill: url(#New_Pattern_Swatch_5); stroke: url(#New_Pattern_Swatch_2); stroke-miterlimit: 10;"/>
      <path d="m480.67,34.65c0,.53,0,.87,0,1.21,0,5.1,0,10.2,0,15.3,0,.53.05,1.07.17,1.58.12.5.41.9,1.03.86.75-.04,1.19-.35,1.3-1.02.09-.52.1-1.06.1-1.59.01-2.36,0-4.72,0-7.08,0-.76.04-1.52.11-2.28.15-1.72.94-2.65,2.63-2.83,1.2-.13,2.44-.11,3.63.03,1.53.18,2.2,1.02,2.46,2.79.08.56.11,1.14.11,1.71.01,1.71,0,3.42,0,5.14.01,1.29-.19,2.54-.62,3.75-.75,2.12-2.38,3.13-4.51,3.46-3.02.47-6.06.19-9.09.21-1.39.01-2.71-.34-3.93-1.02-1.23-.69-1.99-1.78-2.43-3.07-.21-.62-.33-1.3-.33-1.96-.02-10.46-.03-20.93.01-31.39,0-1.59.69-3.07,1.8-4.13.73-.7,1.89-1.06,2.92-1.33,1-.27,2.08-.29,3.13-.31,1.94-.05,3.89-.08,5.82.01,1.22.06,2.48.22,3.64.59,1.47.47,2.48,1.53,3,3.05.47,1.37.66,2.75.66,4.18,0,2.59.04,5.18-.02,7.76-.03,1.15-.28,2.29-.4,3.44-.19,1.69-1.34,2.41-2.81,2.68-1.07.2-2.17.24-3.26.26-1.67.04-3.33.01-5.15.01Zm0-2.5c.71,0,1.28,0,1.84,0,.75,0,.85-1.25.85-1.58.01-4.42.01-8.83,0-13.25,0-.49-.05-.99-.16-1.47-.15-.63-.52-.89-1.16-.85-.36.03-.92-.1-1.15.29-.19.32-.2,1.47-.2,2.18-.02,4.49,0,8.98,0,13.47,0,.34,0,.68,0,1.2Z" style="fill: url(#New_Pattern_Swatch_5); stroke: url(#New_Pattern_Swatch_2); stroke-miterlimit: 10;"/>
      <path d="m420.51,15.37c-.05.98-.13,1.96-.14,2.95,0,10.89,0,21.77,0,32.66,0,.6.04,1.22.16,1.81.11.58.61.88,1.19.8.52-.07.91-.25.92-.93,0-.82.19-1.64.2-2.46.04-3.16.03-6.32.05-9.48,0-1.73.98-2.88,2.68-3.09,1.43-.18,2.85-.26,4.27.19,1.11.36,1.86,1.05,1.91,2.25.11,2.99.2,5.99.18,8.98,0,1.04-.26,2.1-.57,3.1-.47,1.55-1.56,2.61-3.09,3.12-.91.31-1.89.55-2.85.57-2.85.08-5.72.17-8.56,0-2.47-.16-4.6-1.46-5.46-4.07-.36-1.1-.42-2.2-.42-3.33,0-8.6,0-17.21,0-25.81,0-1.22,0-2.44-.02-3.65-.04-1.62.6-3,1.59-4.22.84-1.04,2-1.59,3.3-1.81,3.24-.55,6.51-.31,9.77-.2,1.02.03,2.08.32,3.04.7,1.86.73,2.78,2.25,3.11,4.16.43,2.56.17,5.14.24,7.72.03,1.03-.26,1.98-.67,2.9-.57,1.27-1.22,1.61-2.64,1.52-.94-.06-1.89-.04-2.83-.11-1.83-.13-2.97-1.44-2.96-3.28.02-3.08,0-6.16,0-9.25,0-.15-.02-.3-.02-.46,0-1.66-.97-2.03-2.37-1.28Z" style="fill: url(#New_Pattern_Swatch_5); stroke: url(#New_Pattern_Swatch_2); stroke-miterlimit: 10;"/>
      <path d="m371.13,47.42c0-1.26.02-2.51,0-3.77-.03-1.58-3-5.03-3.53-5.62-.23-.25-.43-.53-.67-.77-1.77-1.77-3.64-3.45-5.3-5.32-1.21-1.37-2.23-2.9-2.14-4.96.12-2.85.04-5.71.08-8.56.04-2.39,1.54-4.5,3.83-5.21.88-.27,1.82-.46,2.74-.5,2.24-.08,4.5-.1,6.74-.02,1.18.04,2.4.21,3.52.57,1.81.59,3,1.92,3.47,3.79.54,2.16.51,4.38.26,6.56-.24,2.03-.73,2.62-2.7,2.87-1.3.16-2.66.08-3.96-.11-1.4-.21-2.24-1.59-2.22-2.99.04-2.28.02-4.57-.02-6.85-.02-.88-.65-1.54-1.33-1.53-.62,0-1.03.26-1.18.86-.12.47-.18.98-.18,1.47-.02,2.17.01,4.34-.02,6.51-.02,1.57.5,2.88,1.61,4.01,2.11,2.14,4.18,4.32,6.27,6.48.76.79,1.5,1.59,2.24,2.38,1.03,1.1,1.46,2.46,1.49,3.9.07,2.93.09,5.87-.03,8.79-.05,1.16-.39,2.36-.88,3.42-.78,1.72-2.37,2.52-4.16,2.82-3.17.53-6.37.28-9.55.17-.99-.03-2.01-.41-2.93-.84-1.87-.88-2.86-2.51-2.98-4.51-.14-2.39-.07-4.79-.02-7.18.02-1.08.67-1.89,1.69-2.17,1.42-.38,4.8-.1,5.03-.07,1,.16,1.61.94,1.81,1.92.55,2.59.17,5.19.3,7.79.03.61.02,1.22.12,1.82.11.66.57.99,1.2,1.01.63.02,1.1-.29,1.25-.94.11-.48.16-.98.17-1.47.02-1.26,0-2.51,0-3.77h0Z" style="fill: url(#New_Pattern_Swatch_5); stroke: url(#New_Pattern_Swatch_2); stroke-miterlimit: 10;"/>
      <path d="m14.27,29.62c.12-.55.27-1.11.35-1.67.24-1.65.43-3.31.69-4.96.18-1.13.46-2.24.65-3.37.19-1.13.31-2.28.5-3.42.2-1.24.44-2.47.65-3.7.1-.6.17-1.2.26-1.8.19-1.24.37-2.49.56-3.73.08-.51.16-1.02.32-1.5.38-1.12.96-1.49,2.14-1.33,1.03.14,1.46.35,1.3,1.42-.19,1.29-.35,2.59-.56,3.88-.25,1.55-.53,3.08-.8,4.63-.26,1.51-.53,3.01-.79,4.52-.27,1.58-.53,3.15-.8,4.73-.33,1.91-.65,3.82-.99,5.73-.28,1.57-.58,3.14-.85,4.72-.18,1.07-.34,2.14-.49,3.22-.14,1-.35,2.01-.36,3.02-.04,3.5-.01,7-.02,10.5,0,.9-.16,1.75-.43,2.64-.43,1.43-1.32,2.16-2.67,2.28-1.39.12-2.82.13-4.21,0-1.34-.13-2.41-1.48-2.54-2.92-.07-.76-.09-1.52-.09-2.28,0-3.16.04-6.32-.02-9.48-.02-1.23-.26-2.46-.43-3.68-.09-.66-.26-1.3-.39-1.96-.27-1.43-.54-2.86-.79-4.29-.2-1.13-.37-2.26-.56-3.38-.23-1.33-.47-2.67-.72-4-.2-1.06-.46-2.11-.66-3.16-.29-1.52-.57-3.05-.83-4.58-.19-1.06-.35-2.12-.53-3.17-.17-1.02-.4-2.04-.51-3.07-.11-.96-.22-1.96-.1-2.91.2-1.59.86-2.04,2.56-2.45,1.8-.43,3.61-.31,5.38.24.68.21,1.22.67,1.5,1.32.3.69.59,1.42.7,2.15.44,2.78.79,5.56,1.2,8.34.36,2.48.74,4.95,1.14,7.42.32,2.02.67,4.04,1,6.06.08,0,.16,0,.24.01Z" style="fill: url(#New_Pattern_Swatch_5); stroke: url(#New_Pattern_Swatch_2); stroke-miterlimit: 10;"/>
      <path d="m150.42,7.07v20.71c.29.04.58.11.87.11,1.26.01,2.51,0,3.77,0,.27,0,.53-.02.8,0,1.25.11,1.83,1.06,1.34,2.22-.23.54-.73.61-1.25.61-1.45,0-2.9,0-4.34,0-.37,0-.74.03-1.22.06,0,.49,0,.89,0,1.3,0,6.24,0,12.49-.01,18.73,0,.8-.11,1.6-.25,2.38-.24,1.26-1.11,1.96-2.31,2.21-1.62.34-3.25.36-4.87-.03-1.52-.37-2.64-1.92-2.59-3.5.02-.53.05-1.06.05-1.59,0-13.29,0-26.58.01-39.87,0-1.02-.07-2.07.19-3.07.53-2,1.68-2.98,3.75-3.08,2.32-.12,4.64-.14,6.96-.18,1.6-.03,3.2-.03,4.8,0,1.39.03,1.96.9,1.52,2.23-.19.56-.62.72-1.16.72-1.6,0-3.2,0-4.8,0-.37,0-.74,0-1.25,0Z" style="fill: url(#New_Pattern_Swatch_5); stroke: url(#New_Pattern_Swatch_2); stroke-miterlimit: 10;"/>
      <path d="m334.65,29.85c0-7.65-.06-15.3.04-22.95.02-1.95.6-2.65,2.74-3.13,1.42-.32,2.76-.11,4.13.06,1.13.14,1.83.91,2.13,1.94.21.71.29,1.48.29,2.23.02,14.5.02,29.01-.01,43.51,0,.88-.21,1.79-.51,2.61-.17.47-.67.92-1.13,1.17-.44.24-.82.57-1.49.56-1.52-.02-3.02,0-4.51-.41-.42-.12-.61-.29-.83-.62-.55-.79-.88-1.57-.88-2.59.05-7.46.03-14.92.03-22.38,0,0,.01,0,.02,0Z" style="fill: url(#New_Pattern_Swatch_5); stroke: url(#New_Pattern_Swatch_2); stroke-miterlimit: 10;"/>
      <path d="m519.22,29.61c0-6.85,0-13.7,0-20.55,0-.8.04-1.6.08-2.39.1-1.66.98-2.5,2.62-2.9,1.48-.36,2.92-.17,4.36.07.98.17,1.75.76,1.92,1.85.16,1.04.39,2.08.4,3.13.03,13.93.03,27.85,0,41.78,0,.97-.28,1.93-.35,2.91-.1,1.29-.99,1.84-2.04,2.12-1.6.43-3.25.29-4.87,0-.92-.16-1.93-1.51-2.01-2.52-.06-.87-.1-1.75-.1-2.62,0-6.96,0-13.93,0-20.89Z" style="fill: url(#New_Pattern_Swatch_5); stroke: url(#New_Pattern_Swatch_2); stroke-miterlimit: 10;"/>
      <path d="m59.23,29.1c0-7.42-.02-14.85.01-22.27,0-1.67.65-2.7,2.04-3.13,1.26-.39,2.59-.46,3.91-.28.11.01.2.13.3.15,2.32.49,2.88,1.11,3.05,3.45.04.49.03.99.03,1.48,0,14.01,0,28.02,0,42.03,0,1.1-.16,2.15-.46,3.2-.21.74-.66,1.22-1.32,1.45-1.92.67-3.88.7-5.81,0-.96-.35-1.5-1.12-1.58-2.15-.1-1.24-.21-2.49-.21-3.73-.02-6.74,0-13.48,0-20.21,0,0,.02,0,.02,0Z" style="fill: url(#New_Pattern_Swatch_5); stroke: url(#New_Pattern_Swatch_2); stroke-miterlimit: 10;"/>
      <path d="m55.85,29.51c0,7,.01,14-.01,21,0,.89-.21,1.79-.28,2.68-.1,1.27-1.07,1.85-2.02,2.18-1.61.55-3.34.45-4.95,0-1.03-.28-1.77-1.08-1.98-2.32-.15-.9-.14-1.79-.14-2.68-.01-13.92-.01-27.85,0-41.77,0-.83.09-1.67.17-2.5.11-1.18.92-2.18,2.02-2.46,1.67-.43,3.36-.38,5.03.01.99.23,1.69.9,1.85,1.95.15.96.3,1.94.3,2.91.02,7,.01,14,.01,21Z" style="fill: url(#New_Pattern_Swatch_5); stroke: url(#New_Pattern_Swatch_2); stroke-miterlimit: 10;"/>
      <path d="m159.67,29.55c0-6.89,0-13.78,0-20.67,0-.84.03-1.67.1-2.51.13-1.66,1.29-2.6,2.58-2.83,1.49-.27,2.92-.14,4.36.09.99.16,1.75.77,1.95,1.83.17.96.38,1.93.38,2.9.02,14.08.02,28.17,0,42.25,0,.93-.27,1.85-.36,2.78-.14,1.35-1.21,1.74-2.23,2.05-1.52.45-3.1.23-4.64,0-.91-.14-1.95-1.45-2.03-2.48-.07-.91-.11-1.82-.11-2.74,0-6.89,0-13.78,0-20.67Z" style="fill: url(#New_Pattern_Swatch_5); stroke: url(#New_Pattern_Swatch_2); stroke-miterlimit: 10;"/>
      <path d="m384.22,15.87c-.95-.07-2.61.06-2.68-.21-.09-.31-.19-.55-.23-.81-.23-1.46.1-1.84,1.6-1.87.38,0,.76,0,1.27,0,.02-.85.07-1.63.05-2.41-.04-2.48,1.63-3.18,3.14-3.34,1.4-.15,2.79-.1,4.16.25.76.19,1.4.6,1.6,1.45.15.65.36,1.29.44,1.95.07.63.02,1.28.02,2.03.46.03.82.06,1.18.07.57.01,1.15-.03,1.71.03.74.07.98.37,1,1.11,0,.19,0,.38,0,.57-.04.77-.24,1-1.03,1.07-.53.04-1.06.01-1.6.03-.37,0-.75.04-1.26.06v1.4c0,11.19,0,22.37,0,33.56,0,.98-.14,1.92-.39,2.88-.28,1.12-.99,1.66-1.98,1.93-1.85.49-3.72.37-5.5-.25-.54-.19-.94-1-1.25-1.61-.22-.44-.24-1.01-.24-1.52-.02-11.64-.02-23.29-.03-34.93,0-.45,0-.9,0-1.42Z" style="fill: url(#New_Pattern_Swatch_5); stroke: url(#New_Pattern_Swatch_2); stroke-miterlimit: 10;"/>
      <path d="m682.66,17.29c-.72,0-1.25.03-1.78,0-.88-.05-1.18-.45-1.17-1.46.02-.99.22-1.23,1.18-1.28.52-.03,1.05,0,1.7,0,.04-1.01.14-1.92.08-2.81-.05-.72.36-1.2.62-1.77.27-.6.84-.71,1.42-.93,1.22-.46,2.46-.43,3.7-.34.69.05,1.4.23,2.05.5.83.34,1.23,1.11,1.34,1.97.13.97.16,1.95.24,2.92,0,.11.07.21.15.45.75,0,1.54-.01,2.33,0,1.27.02,1.89,1.04,1.32,2.18-.24.47-.66.59-1.15.58-.42,0-.84,0-1.26,0-.41,0-.83,0-1.41,0,0,.51,0,.95,0,1.39,0,11.15,0,22.3,0,33.45,0,1.1-.12,2.16-.43,3.22-.21.72-.59,1.23-1.26,1.5-1.96.78-4,.68-5.93.11-1.07-.32-1.67-1.44-1.71-2.67-.03-.84-.05-1.67-.05-2.51,0-11,0-21.99,0-32.99v-1.5Z" style="fill: url(#New_Pattern_Swatch_5); stroke: url(#New_Pattern_Swatch_2); stroke-miterlimit: 10;"/>
      <path d="m254.91,18.79c0-1.1.08-2.2.17-3.3.1-1.29.85-2.2,2.08-2.49.59-.14,1.2-.2,1.81-.2,2.67-.02,5.33,0,8,0,.15,0,.31,0,.46,0,1.2.09,1.76,1.12,1.2,2.2-.23.43-.61.55-1.04.57-.57.03-1.14,0-1.71.04-1.03.09-1.38.44-1.5,1.46-.06.49-.07.99-.07,1.48,0,10.51,0,21.02,0,31.52,0,.65,0,1.3-.04,1.94-.19,2.39-1.43,3.54-3.71,3.63-1.1.04-2.21-.02-3.29-.2-1.14-.19-1.8-1.07-2.13-2.11-.2-.62-.19-1.32-.19-1.99-.01-5.67-.03-27.37,0-32.55Z" style="fill: url(#New_Pattern_Swatch_5); stroke: url(#New_Pattern_Swatch_2); stroke-miterlimit: 10;"/>
      <path d="m728.55,14.54c1.45,0,2.89,0,4.34,0,1.26.01,1.59.32,1.57,1.39-.02,1.02-.41,1.35-1.65,1.36-.38,0-.76-.01-1.14,0-1.07.05-1.62.62-1.66,1.71-.02.46-.02.91-.02,1.37,0,10.47,0,20.94-.01,31.4,0,1.05-.1,2.11-.24,3.15-.15,1.07-.8,1.83-1.84,2.1-1.71.45-3.47.48-5.18,0-1.21-.35-2.06-1.53-2.08-2.82-.03-1.45-.03-2.89-.03-4.34,0-10.66-.04-21.32.07-31.97.02-2.35,1.01-3.21,3.17-3.32,1.56-.08,3.12-.02,4.68-.02,0,0,0-.01,0-.02Z" style="fill: url(#New_Pattern_Swatch_5); stroke: url(#New_Pattern_Swatch_2); stroke-miterlimit: 10;"/>
      <path d="m407.78,34.1c0,5.52.01,11.04-.01,16.56,0,.97-.11,1.95-.27,2.91-.15.87-.68,1.53-1.53,1.85-1.77.66-3.6.57-5.4.18-1.19-.26-2.12-1.73-2.14-3.03-.01-.68-.02-1.37-.02-2.05,0-11.38,0-22.76.02-34.15,0-.55.09-1.1.2-1.65.19-.93.79-1.45,1.71-1.71,1.83-.52,3.66-.44,5.47,0,.71.17,1.21.66,1.51,1.41.41,1.02.46,2.05.46,3.11,0,5.52,0,11.04,0,16.56Z" style="fill: url(#New_Pattern_Swatch_5); stroke: url(#New_Pattern_Swatch_2); stroke-miterlimit: 10;"/>
      <path d="m541.31,34.31c0,5.52.01,11.04-.01,16.56,0,.9-.15,1.8-.29,2.69-.15.99-.75,1.61-1.7,1.94-1.72.59-3.46.44-5.19.14-1.03-.18-1.92-1.37-2.01-2.48-.09-1.1-.18-2.2-.18-3.3-.01-10.58-.01-21.16,0-31.74,0-.83.09-1.67.15-2.5.02-.23.07-.45.13-.67.42-1.44,1.33-2.2,2.84-2.2,1.35,0,2.71.06,4.05.24,1.03.13,1.72.84,1.9,1.87.17.96.29,1.94.3,2.91.03,5.52.01,11.04.01,16.56Z" style="fill: url(#New_Pattern_Swatch_5); stroke: url(#New_Pattern_Swatch_2); stroke-miterlimit: 10;"/>
      <path d="m351.81,12.59c.96.13,1.94.2,2.89.4,1.01.22,1.8,1.31,1.86,2.48.09,1.81.19,3.63.19,5.44.02,9.86.02,19.72,0,29.58,0,1.11-.23,2.23-.41,3.33-.13.77-.65,1.3-1.37,1.55-1.84.65-3.71.66-5.58.09-.89-.27-1.47-.85-1.68-1.7-.19-.77-.32-1.57-.32-2.36-.02-11.42-.02-22.84,0-34.26,0-.81.11-1.65.31-2.44.35-1.38,1.5-1.8,2.74-1.99.45-.07.91-.01,1.37-.01,0-.04,0-.08,0-.12Z" style="fill: url(#New_Pattern_Swatch_5); stroke: url(#New_Pattern_Swatch_2); stroke-miterlimit: 10;"/>
      <path d="m397.94,5.74c.01-2.35,1.32-4.44,3.47-4.96,1.83-.44,3.71-.24,5.21,1.18,1.4,1.33,1.81,2.95,1.46,4.85-.34,1.81-1.3,3.06-3.01,3.66-3.36,1.17-6.03-.28-7.11-3.71-.1-.31-.01-.68-.01-1.02Z" style="fill: url(#New_Pattern_Swatch_5); stroke: url(#New_Pattern_Swatch_2); stroke-miterlimit: 10;"/>
      <path d="m536.4,10.87c-2.68.01-4.81-2.29-4.93-5.08-.14-3.24,2.84-5.23,5.1-5.19,2.47.05,5.17,1.7,5.16,5.19-.01,3.15-2.4,5.18-5.33,5.08Z" style="fill: url(#New_Pattern_Swatch_5); stroke: url(#New_Pattern_Swatch_2); stroke-miterlimit: 10;"/>
      <path d="m352.02,10.87c-2.58.08-5.21-2.04-5.13-5.14.03-1.47.48-2.63,1.48-3.62,1.02-1.02,2.28-1.53,3.71-1.47,3,.12,4.99,2.03,5.08,5.13.09,2.9-2.21,5.11-5.14,5.1Z" style="fill: url(#New_Pattern_Swatch_5); stroke: url(#New_Pattern_Swatch_2); stroke-miterlimit: 10;"/>
      <path d="m581.63,5.8c.07-.98.09-1.97.21-2.94.15-1.14.86-1.84,1.96-2.11,1.35-.33,2.7-.31,4.06,0,1.34.31,1.96,1.29,2.03,2.54.1,1.99.28,4-.19,5.99-.2.86-.74,1.38-1.57,1.62-1.17.34-2.35.44-3.57.26-1.9-.27-2.75-1.13-2.85-3.06-.04-.76,0-1.52,0-2.28h-.07Z" style="fill: url(#New_Pattern_Swatch_5); stroke: url(#New_Pattern_Swatch_2); stroke-miterlimit: 10;"/>
    </g>
  </g>
</svg>