<?xml version="1.0" encoding="UTF-8"?>
<svg id="Layer_2" data-name="Layer 2" xmlns="http://www.w3.org/2000/svg" viewBox="0 0 295.71 468.73">
  <g id="Layer_1-2" data-name="Layer 1">
    <path d="m157.72,468.73c-.21,0-.42,0-.62,0-46.13-.3-85.47-26.05-102.68-67.21-8.75-20.92-14.89-44.46-18.77-71.96-5.52-39.13-13.57-69.63-25.33-95.97-.81-1.8-1.65-3.6-2.49-5.4-2.56-5.47-5.22-11.13-6.83-17.05-1.06-3.89-2.1-12.37,1.57-16.6,3.34-3.86,11.67-4.23,16.25-3.26,22.6,4.76,32.83,22.62,42.15,42.08,6.39,13.35,10.99,26.28,14.92,41.91.53,2.12,1.06,4.75,1.61,7.53,1.6,8.03,4.27,21.36,8.28,22.82,3.91-.33,7.37-9.58,8.86-23.78,2.2-20.88,3.42-43.09,3.98-72.03.58-30.17.91-60.86,1.22-90.53.24-22.25.48-45.26.83-67.9.08-4.94,1.22-10.41,3.4-16.25,2.9-7.79,9.09-11.99,17.91-12.14,8.43-.15,15.02,4.14,19.03,12.4,2.79,5.75,3.88,16.66,4.15,41.68.15,24.71.13,44.29.11,63.22-.02,19.84-.03,40.36.14,66.45.07,10.92,3.91,24.98,6.27,25.56,1.04-.46,2.63-5.43,2.9-12.49.85-22.39,1.31-42.88,1.4-62.62v-1.25c.15-31.54.57-127.52,2.5-140.73C159.95,5.12,166.02,0,176.53,0c11.95,0,17.07,11.02,19.53,16.32l.09.19c2.81,6.05,4.26,13.99,4.31,23.61.25,47.3.25,95.39.25,141.9,0,14.59,0,29.19,0,43.78v.19c-.01,6.95,1.56,7.57,1.9,7.62.41-.06,1.49-.71,1.46-5.97v-.49s.52-49.64.52-49.64c.44-42.12.89-84.25,1.32-126.37.09-9.08,2.23-15.47,6.54-19.53,3.75-3.53,9.12-5.15,15.99-4.82,11.2.54,13.79,5.28,17.08,12.97,2.15,5.02,3.14,15.41,3.16,21.17.13,48.48.13,101.59.02,167.15-.02,10.9,1.54,16.31,3,17.75.25.24.43.3.54.32.62-.56,1.37-2.91,1.54-10.72l.02-.88c.26-10.23.22-20.66.18-30.74-.02-4.21-.04-8.42-.03-12.63v-9.45c.02-19.6.04-39.2.1-58.81.03-11.22,7.65-20.01,17.72-20.45,10.15-.44,18.29,7.07,19.38,17.85,1.05,10.41,1.66,19.67,1.88,28.3.14,5.79.38,13.43.65,22.31,1.15,37.61,3.08,100.55,1.36,133.57l-.23,4.3c-1.9,35.69-3.86,72.6-16.49,107.3-10.75,29.53-28.53,45.75-51.4,46.9-.2,0-.43.03-.7.04-2.92.2-7.31.51-7.98-2.62h0c-.69-3.26,3.22-5.2,9.7-8.42,9.06-4.5,22.74-11.3,28.94-23.92,6.91-13.51,12.49-29.17,17.07-47.91,2.6-10.62,3.39-21.97,4.15-32.95.23-3.37.48-6.86.77-10.27,1.08-12.67,3.02-52.62,2.65-113.1-.33-31.3-.77-64.61-2.04-97.41-.14-3.59-3.9-9.33-6.71-10.23-2.22-.71-3.11-.09-3.41.12-1.41.99-2.27,3.76-2.42,7.81-.23,6.21-.1,14.03.08,24.84.16,10.02.37,22.5.35,38.2.06,3.2.14,6.44.22,9.67.38,15.46.77,31.45-1.45,47.03-1.92,13.47-9.03,13.49-14.21,13.51h-.36s-.06,0-.08,0c-7.67,0-11.87-4.45-12.83-13.59-3.76-35.92-3.18-72.41-2.61-107.7.37-23.19.75-47.16-.11-70.7l-.03-.95c-.24-6.65-.48-13.53-2.88-19.46-.8-1.99-3.21-4.39-5.23-4.62-2.62-.3-3.85.22-5.49,1.42-3.72,2.74-3.5,8.18-3.29,13.44.04,1.01.08,2,.09,2.93.16,17.27.29,37.69.03,58.24-.27,21.25-.64,42.86-1,63.76-.28,15.87-.55,31.73-.78,47.6-.12,8.26-1.61,19.2-13.05,19.2-.07,0-.13,0-.2,0-8.36-.09-16.29-9.56-16.62-19.87-.1-3.07-.06-6.18-.02-9.18.02-1.58.04-3.16.04-4.74l.04-37.2c.05-43.82.1-89.12.02-133.68-.01-6.79-.17-13.86-1.93-19.14-2.07-6.2-4.39-8.51-8.57-8.51h-.06c-5.17.03-6.9,7.53-7.3,9.83-1.76,9.96-2.14,99.06-2.15,122.37,0,5.89,0,11.78.02,17.67.02,15.67.05,31.87-.14,47.81v.61c-.08,6.67-.16,13.56-2.48,19.71-.12.32-.24.65-.37.99-1.58,4.31-3.96,10.81-12.21,10.81-.04,0-.08,0-.12,0-6.15-.05-11.01-4.21-12.91-8.06-3.18-6.42-5.14-14.52-5.24-21.69-.31-22.95-.31-46.29-.3-68.85,0-16.15,0-32.85-.11-49.27-.14-19.59-.75-34.5-1.99-48.37l-.07-.76c-.52-6.05-1.34-10.39-7.2-11.15-6-.78-8.98,1.81-10.64,9.23-.51,2.28-1.2,12.5-1.22,15.29-.06,7.94-.18,14.71-.31,21.26-.2,10.57-.39,20.56-.22,33.53.14,10.76.43,21.7.72,32.29.39,14.43.79,29.35.81,44.05.03,19.44-2.84,94.89-12.23,116.36-3.04,6.94-9.72,12.77-17.78,10.13-5.71-1.87-11.79-7.92-13.84-13.78-3.17-9.02-5.62-18.41-8-27.5-1.7-6.51-3.47-13.24-5.47-19.75-7.13-23.19-26.08-54.71-40.74-53.35-.65.06-1.27.6-1.35,1.18-.43,2.95,1.81,7.91,4.64,14.18,1.26,2.79,2.69,5.96,4.12,9.46,6.22,15.19,11.51,32.57,16.66,54.69,3.01,12.92,5.17,26.32,7.27,39.27,3.08,19.03,6.26,38.71,12.17,57.07,12.89,40.06,35.71,63.66,69.76,72.13,37.56,9.34,69.16,1.03,93.94-24.7,18.87-19.59,24.94-45.3,17.56-74.35-6.72-26.44-25.5-44.19-52.88-50-24.2-5.14-57.62-3.88-79.34,31.24-10.24,16.55-13.29,36.29-8.36,54.15,4.47,16.2,14.92,28.96,30.21,36.89,15.21,7.89,33.11,8.05,49.1.44,15.97-7.6,27.48-21.67,30.79-37.65,3.17-15.32,2.05-26.75-3.64-37.04-6.91-12.5-17.09-18.74-31.12-19.06-11.2-.26-21.24.07-30.65,6.8-8.69,6.21-14.04,16.24-14.68,27.52-.62,11.06,3.41,21.38,11.06,28.33,10.42,6.54,23.2,3.75,30.69-1.63,6.8-4.88,11.22-17.56,8.43-24.23-2.06-4.93-12.95-5.63-20.94-2.96-1.04.35-3,.27-4.12-.98-.41-.46-1.26-1.72-.39-3.7,4.56-12.39,16.63-10.86,23.43-8.83,10.73,3.19,18.02,17.29,15.01,29.01-5.2,20.24-22.99,32.34-44.29,30.12-17.98-1.88-33.71-20.54-32.99-39.14.54-14.1,5.77-27.25,14.71-37.02,9.59-10.48,22.52-16.29,37.4-16.8,24.91-.86,47.73,14.59,54.23,36.74,5.24,17.87,2.59,37.55-7.28,53.99-9.93,16.55-26.2,28.23-44.64,32.05-24.47,5.06-45.55-.51-62.65-16.56-13.37-12.55-20.87-28.99-21.68-47.56-1.25-28.27,7.53-50.56,26.83-68.13,12.85-11.7,29.12-18.36,48.36-19.78,25.53-1.89,45.96,3.68,62.47,17.05,3.33,2.7,6.47,5.7,9.5,8.6,1.31,1.26,2.63,2.51,3.96,3.75,1.96,1.82,3.9,4.19,6.11,7.46,2.75,4.08,4.69,9.07,6.73,14.36l.76,1.97c5.72,14.67,6.92,30.41,3.79,49.55-5.7,34.78-27.35,58.03-66.18,71.08-9.96,3.35-18,5.73-30.28,5.73ZM14.04,194.79c-3.64,0-7.19.9-8.45,2.36-2,2.31-1.94,8.51-.74,12.93,1.52,5.59,4.1,11.09,6.59,16.41.85,1.82,1.71,3.64,2.52,5.46,11.92,26.69,20.06,57.53,25.64,97.04,3.83,27.16,9.88,50.38,18.5,70.97,16.58,39.65,54.52,64.47,99.02,64.76,12.03.07,19.85-2.24,29.6-5.52,37.3-12.53,58.07-34.75,63.51-67.93,3.02-18.39,1.88-33.47-3.56-47.44l-.77-1.98c-2.05-5.29-3.81-9.86-6.31-13.56-2.01-2.97-3.81-5.18-5.52-6.76-1.35-1.25-2.67-2.52-4-3.79-2.97-2.84-6.04-5.78-9.25-8.38-15.68-12.69-35.19-17.98-59.65-16.17-18.32,1.36-33.79,7.67-45.96,18.75-18.37,16.72-26.72,37.98-25.53,65,.77,17.5,7.83,33,20.43,44.82,16.1,15.11,35.98,20.34,59.1,15.56,17.34-3.59,32.66-14.59,42.02-30.19,9.29-15.49,11.8-34,6.87-50.8-6-20.43-27.15-34.68-50.26-33.87-13.78.48-25.74,5.84-34.58,15.5-8.3,9.07-13.15,21.31-13.66,34.47-.63,16.35,13.66,33.36,29.41,35.01,19.24,2.01,35.31-8.9,40-27.14,2.47-9.62-3.61-21.6-12.28-24.18-9.47-2.82-15.44-.97-18.24,5.63,8.75-2.65,21.88-2.24,25.09,5.47,3.5,8.38-1.44,23.02-9.79,29.02-8.88,6.37-23.24,9.36-35.31,1.67l-.26-.2c-8.64-7.77-13.19-19.3-12.5-31.64.7-12.5,6.66-23.64,16.35-30.56,10.4-7.43,21.57-7.81,33.07-7.54,15.36.35,26.98,7.46,34.53,21.13,6.18,11.19,7.43,23.47,4.05,39.79-3.56,17.2-15.89,32.32-32.99,40.45-17.13,8.15-36.33,7.97-52.66-.5-16.31-8.46-27.45-22.07-32.22-39.38-5.22-18.93-2.01-39.83,8.81-57.32,22.95-37.1,58.12-38.45,83.58-33.05,28.95,6.14,48.81,24.94,55.92,52.93,7.74,30.46,1.33,57.47-18.55,78.11-25.84,26.83-58.74,35.52-97.78,25.81-35.5-8.83-59.25-33.29-72.6-74.78-6-18.64-9.21-38.48-12.31-57.65-2.08-12.88-4.24-26.21-7.21-39-5.1-21.91-10.33-39.1-16.47-54.09-1.41-3.44-2.82-6.57-4.07-9.33-3.22-7.14-5.55-12.3-4.95-16.4.35-2.43,2.43-4.36,4.95-4.59,18.98-1.76,38.64,35.71,44.93,56.16,2.03,6.59,3.8,13.36,5.52,19.91,2.36,9.01,4.8,18.32,7.91,27.19,1.63,4.65,6.81,9.82,11.32,11.3,6.07,1.99,10.73-3.03,12.87-7.93,8.56-19.56,11.93-89.06,11.9-114.75-.02-14.64-.42-29.54-.81-43.94-.28-10.6-.58-21.56-.72-32.34-.17-13.03.02-23.05.22-33.66.12-6.53.25-13.29.31-21.21.02-2.37.68-13.27,1.32-16.14,1.33-5.96,4.34-13.72,15.06-12.32,9.51,1.23,10.24,9.71,10.67,14.78l.06.74c1.25,13.98,1.87,29,2.01,48.7.11,16.44.11,33.14.11,49.3,0,22.55,0,45.87.3,68.8.09,6.6,1.89,14.07,4.82,19.97,1.42,2.87,5.1,5.8,9.36,5.83.03,0,.06,0,.09,0,5.07,0,6.64-3.25,8.45-8.19.13-.35.25-.69.38-1.02,2.07-5.49,2.14-12.02,2.22-18.34v-.62c.2-15.91.17-32.1.15-47.76,0-5.89-.02-11.78-.02-17.68,0-1.11.12-111.26,2.21-123.07,1.45-8.2,5.64-13.11,11.22-13.14h.08c7.59,0,10.51,5.68,12.37,11.25,1.95,5.84,2.12,13.27,2.13,20.39.09,44.57.03,89.88-.02,133.7l-.04,37.2c0,1.6-.02,3.19-.04,4.79-.04,2.96-.08,6.02.02,9,.26,8.01,6.53,15.93,12.66,16,4.64.07,9.01-1.76,9.21-15.26.23-15.87.51-31.74.78-47.61.36-20.89.74-42.49,1-63.74.26-20.52.13-40.91-.03-58.15,0-.89-.05-1.83-.08-2.8-.23-5.71-.52-12.82,4.91-16.82,2.21-1.63,4.47-2.62,8.33-2.18,3.68.43,7.2,3.94,8.48,7.1,2.66,6.59,2.92,13.82,3.17,20.82l.03.95c.86,23.64.48,47.67.11,70.9-.56,35.17-1.14,71.54,2.59,107.22.93,8.85,5.06,10.02,8.91,10.01h.36c2.38,0,4.63-.01,6.33-1.15,1.98-1.33,3.27-4.25,3.93-8.92,2.18-15.25,1.79-31.07,1.41-46.36-.08-3.25-.16-6.5-.22-9.74.02-15.71-.19-28.16-.35-38.17-.18-10.87-.31-18.73-.08-25.05.2-5.48,1.59-9.16,4.12-10.93,1.87-1.31,4.2-1.53,6.93-.65,4.79,1.54,9.29,9.05,9.48,13.89,1.28,32.85,1.71,66.19,2.05,97.53.37,60.63-1.58,100.74-2.67,113.47-.29,3.39-.53,6.86-.76,10.21-.77,11.14-1.57,22.67-4.25,33.62-4.66,19.04-10.35,34.99-17.38,48.75-6.78,13.81-21.2,20.97-30.74,25.71-2.36,1.17-5.16,2.56-6.63,3.57,1.02.03,2.29-.06,2.84-.1.3-.02.56-.04.78-.05,26.71-1.35,40.76-24.82,47.85-44.28,12.43-34.14,14.38-70.75,16.26-106.15l.23-4.3c1.71-32.85-.22-95.69-1.37-133.23-.27-8.89-.51-16.54-.65-22.33-.21-8.53-.82-17.69-1.86-28-.88-8.74-7.14-14.61-15.22-14.26-7.9.34-13.87,7.42-13.89,16.46-.06,19.6-.07,39.2-.09,58.8v9.45c-.01,4.2,0,8.4.02,12.61.04,10.11.08,20.57-.18,30.86l-.02.86c-.12,5.79-.31,14.54-5.37,14.63-1.31,0-2.52-.48-3.52-1.47-2.8-2.76-4.21-9.69-4.19-20.61.11-65.55.11-118.66-.02-167.13-.01-5.48-1.01-15.34-2.84-19.61-3.08-7.18-4.68-10.12-13.6-10.55-5.82-.28-10.08.94-13.05,3.74-3.43,3.23-5.21,8.84-5.29,16.66-.43,42.12-.87,84.25-1.32,126.37l-.52,49.64v.42c.07,9.85-4.05,9.96-5.4,10h-.05s-.05,0-.05,0c-3.9-.1-5.87-4.01-5.85-11.63v-.18c0-14.59,0-29.19,0-43.78,0-46.5,0-94.59-.25-141.88-.05-9.04-1.37-16.42-3.94-21.95l-.09-.2c-2.43-5.24-6.5-14.01-15.9-14-8.44,0-12.92,3.75-14.09,11.79-1.25,8.58-2.08,55.74-2.45,140.17v1.25c-.09,19.79-.55,40.31-1.41,62.75-.19,4.91-1.23,16.31-6.79,16.33-.79.02-1.99-.19-3.21-1.34-4.61-4.34-7.12-20.66-7.17-28.19-.17-26.11-.16-46.63-.14-66.48.02-18.92.03-38.49-.11-63.18-.26-24.04-1.27-34.88-3.75-39.96-3.33-6.85-8.47-10.24-15.36-10.15-7.23.13-11.89,3.25-14.23,9.54-2.02,5.41-3.07,10.43-3.14,14.91-.35,22.62-.59,45.63-.83,67.88-.32,29.68-.64,60.38-1.22,90.57-.56,29.05-1.79,51.37-4,72.37-1.32,12.53-4.71,27.45-13.12,27.37h-.24s-.23-.06-.23-.06c-6.59-1.65-9.17-14.58-11.45-25.99-.55-2.74-1.06-5.32-1.57-7.34-3.86-15.36-8.37-28.05-14.65-41.16-9.21-19.23-18.52-35.51-39.37-39.89-1.25-.26-2.61-.39-3.96-.39Zm144.01,168.07h0s0,0,0,0Z" style="fill: #231f20;"/>
  </g>
</svg>